<?xml version="1.0" standalone="no"?>
<!DOCTYPE svg PUBLIC "-//W3C//DTD SVG 20010904//EN"
 "http://www.w3.org/TR/2001/REC-SVG-20010904/DTD/svg10.dtd">
<svg version="1.0" xmlns="http://www.w3.org/2000/svg"
 width="2000.000000pt" height="2000.000000pt" viewBox="0 0 2000.000000 2000.000000"
 preserveAspectRatio="xMidYMid meet">

<g transform="translate(0.000000,2000.000000) scale(0.100000,-0.100000)"
fill="#000000" stroke="none">
<path d="M9811 18269 c-180 -23 -387 -102 -547 -209 -101 -68 -256 -223 -324
-324 -290 -433 -290 -979 0 -1412 68 -101 223 -256 324 -324 433 -290 978
-290 1412 0 100 67 254 222 323 324 291 431 291 978 1 1412 -68 101 -223 256
-324 324 -257 172 -569 247 -865 209z m404 -209 c219 -57 373 -146 522 -303
114 -121 186 -238 236 -387 42 -128 51 -188 51 -340 0 -152 -9 -212 -51 -340
-50 -149 -122 -266 -236 -387 -155 -163 -334 -263 -562 -314 -79 -18 -331 -18
-410 0 -228 51 -407 151 -562 314 -142 150 -227 311 -274 522 -18 79 -18 331
0 410 51 228 151 407 314 562 151 143 332 238 524 272 32 6 69 13 83 15 62 11
288 -3 365 -24z"/>
<path d="M9682 17798 c-7 -7 -12 -20 -12 -29 0 -9 51 -159 114 -333 l115 -317
-21 -35 c-26 -44 -19 -97 17 -133 20 -21 35 -26 74 -26 56 0 96 28 106 74 5
23 29 38 161 104 148 74 155 79 152 105 -5 45 -40 39 -195 -37 -116 -57 -144
-67 -153 -56 -6 8 -23 16 -38 20 -25 5 -34 26 -146 335 -122 337 -137 365
-174 328z"/>
<path d="M15420 16250 l0 -870 -2165 0 c-1932 0 -2170 -2 -2203 -15 -49 -21
-81 -52 -103 -100 -18 -38 -19 -110 -19 -1787 l0 -1748 2960 0 2960 0 0 1295
0 1295 385 0 385 0 0 1400 0 1400 -1100 0 -1100 0 0 -870z m2010 -530 l0
-1210 -290 0 -290 0 0 367 0 366 -25 43 c-14 23 -42 53 -62 66 l-38 23 -557 3
-558 3 0 774 0 775 910 0 910 0 0 -1210z m-830 -2120 l0 -1570 -2710 0 -2710
0 0 1570 0 1570 2710 0 2710 0 0 -1570z"/>
<path d="M7631 15709 c-220 -23 -527 -109 -721 -202 -208 -99 -408 -263 -489
-400 -47 -81 -98 -235 -116 -353 -17 -113 -19 -305 -5 -444 25 -241 25 -257
-10 -353 -45 -122 -108 -214 -240 -347 -193 -195 -250 -309 -257 -515 -6 -147
8 -214 73 -357 41 -89 47 -109 46 -167 0 -66 -4 -78 -82 -296 -71 -197 -38
-390 86 -505 45 -42 134 -90 167 -90 9 0 17 -1 17 -3 0 -2 -39 -70 -86 -152
-47 -83 -125 -230 -174 -327 -205 -412 -266 -653 -198 -784 15 -27 45 -67 67
-87 23 -20 41 -39 41 -42 0 -3 -673 -5 -1495 -5 l-1495 0 0 -305 0 -305 220 0
220 0 0 -559 0 -558 38 -7 c20 -3 50 -6 65 -6 27 0 28 1 20 38 -4 20 -8 98 -8
172 0 113 4 147 24 210 51 167 140 295 257 372 l64 42 0 148 0 148 1003 0
1004 0 0 -192 c2 -417 91 -721 276 -937 40 -46 113 -112 143 -129 9 -5 20 -60
34 -166 11 -87 23 -168 26 -181 5 -19 26 -30 127 -64 158 -53 299 -93 305 -86
3 3 12 56 19 118 25 209 137 715 176 796 16 33 94 75 169 91 102 22 221 -5
319 -72 l47 -31 -20 -66 c-74 -256 -123 -529 -138 -775 -5 -93 -9 -171 -7
-172 1 -1 81 -8 177 -14 594 -42 1202 75 1710 330 155 78 344 196 412 259 l52
48 -2 107 c-1 125 -12 226 -53 501 -26 168 -84 509 -105 608 l-6 27 69 0 c60
0 70 -3 82 -23 38 -62 194 -261 255 -325 86 -90 114 -106 172 -97 148 22 449
175 753 381 l93 64 2256 0 c1240 0 2258 -2 2260 -5 3 -2 -14 -98 -37 -212 -60
-304 -73 -401 -73 -563 0 -219 36 -360 127 -501 130 -201 349 -332 643 -385
56 -10 149 -16 259 -16 l173 -1 2 -2056 3 -2056 228 -3 227 -2 0 2095 0 2095
28 6 c165 37 564 174 597 205 14 14 45 11 51 -6 9 -23 104 -65 148 -65 106 1
206 100 206 205 0 73 -55 155 -125 186 -56 26 -112 24 -171 -6 -56 -28 -92
-75 -109 -142 l-12 -46 -102 -43 c-162 -70 -448 -164 -495 -164 -14 0 -16 77
-16 740 l0 740 220 0 220 0 0 305 0 305 -452 0 -453 1 35 27 c60 46 91 85 121
148 l30 61 58 6 c80 7 162 49 221 114 66 72 93 145 94 248 1 70 -3 89 -31 147
-56 118 -149 189 -278 211 l-65 11 0 38 0 38 -405 0 -405 0 0 -378 c0 -422 4
-457 65 -548 18 -29 52 -65 74 -80 22 -16 41 -32 41 -37 0 -4 -104 -6 -232 -5
l-232 3 -17 95 c-34 195 -134 431 -282 665 l-63 100 -72 1 -73 2 19 -32 c11
-17 48 -76 83 -131 92 -144 191 -345 227 -460 31 -100 59 -231 51 -239 -2 -3
-869 -6 -1926 -8 l-1921 -3 15 28 c13 25 13 34 -1 73 -8 24 -31 68 -50 97 -45
68 -192 209 -273 263 l-63 42 -477 -179 c-262 -99 -480 -176 -484 -172 -4 5
-62 114 -129 243 -284 545 -529 951 -721 1190 -78 98 -167 188 -208 209 -12 7
-21 14 -19 16 2 2 51 11 108 20 307 45 498 141 564 285 21 44 26 71 26 132 0
123 -40 214 -181 413 -31 44 -64 94 -73 112 -22 44 -21 139 5 259 29 138 28
250 -3 334 -48 129 -116 210 -405 478 -189 174 -230 247 -323 576 -76 265
-129 378 -251 531 l-60 76 12 97 12 96 -39 33 c-56 48 -226 130 -316 152 -150
38 -327 48 -507 30z m858 -671 c188 -400 391 -1243 391 -1621 0 -141 -9 -168
-67 -206 -93 -62 -325 -130 -498 -147 -38 -4 -77 -8 -85 -10 -8 -1 -57 -3
-109 -3 l-94 -1 7 -77 c18 -208 68 -437 116 -537 16 -34 27 -62 25 -65 -2 -2
-84 12 -182 32 -98 19 -239 45 -313 58 -74 13 -139 28 -143 33 -5 6 -6 47 -4
91 5 92 24 137 92 220 53 65 69 112 68 190 -2 109 -60 220 -213 410 -75 93
-110 151 -110 182 0 10 16 30 35 46 19 15 48 48 66 73 32 48 29 63 -12 64 -37
0 -140 64 -184 113 -58 64 -91 127 -116 225 -33 131 -21 221 37 271 61 54 161
58 254 11 34 -17 150 -114 158 -132 4 -9 108 30 192 72 276 138 480 383 600
718 18 50 35 92 37 92 2 0 26 -46 52 -102z m8156 -3952 c61 -28 87 -56 116
-120 24 -56 22 -131 -5 -184 -34 -66 -106 -117 -176 -124 l-35 -3 -3 228 -2
227 27 0 c16 0 51 -11 78 -24z m-313 -83 c88 -79 48 -208 -117 -380 l-90 -95
-65 50 c-84 64 -172 157 -199 210 -44 86 -18 188 56 218 42 18 85 13 147 -18
l43 -20 41 27 c71 47 138 49 184 8z m28 -2112 l0 -778 -87 -6 c-104 -6 -280 6
-381 28 -236 49 -447 197 -537 376 -73 143 -97 361 -66 589 10 75 96 524 106
558 4 9 109 12 485 12 l480 0 0 -779z"/>
<path d="M5455 15351 c-111 -49 -101 -227 15 -262 144 -43 248 132 140 236
-23 22 -40 29 -82 32 -29 1 -62 -1 -73 -6z"/>
<path d="M4266 11843 l-38 -4 6 -42 c3 -23 17 -150 31 -282 14 -132 28 -257
31 -277 l6 -38 59 0 c49 0 59 3 59 17 0 26 -60 585 -66 611 -5 23 -6 23 -88
15z"/>
<path d="M4612 11593 c-19 -4 -22 -9 -17 -36 6 -35 45 -348 45 -359 0 -5 20
-8 45 -8 44 0 45 1 45 33 -1 17 -11 109 -23 202 -22 167 -23 170 -47 171 -14
1 -35 0 -48 -3z"/>
<path d="M11721 11529 l-33 -41 7 -81 c3 -45 8 -98 11 -117 2 -19 13 -123 24
-230 31 -301 22 -269 93 -317 34 -23 63 -41 64 -39 2 1 -4 81 -11 177 -8 96
-17 217 -21 269 -3 52 -7 115 -10 140 -2 25 -7 81 -10 125 -6 75 -8 82 -43
117 l-37 37 -34 -40z"/>
<path d="M6200 7637 c-228 -114 -361 -251 -406 -421 -82 -306 225 -526 931
-666 77 -15 141 -26 143 -25 2 2 -23 40 -54 86 -88 129 -161 302 -194 461 -10
51 -18 65 -71 115 -111 106 -188 259 -233 466 -4 15 -12 27 -19 27 -6 0 -50
-19 -97 -43z"/>
<path d="M10100 7245 c-494 -130 -1162 -229 -1850 -274 -74 -5 -314 -8 -533
-7 -218 0 -397 -1 -397 -3 0 -2 16 -34 37 -70 71 -129 160 -248 263 -352 l105
-106 169 -7 c763 -28 1400 44 1842 210 301 112 481 258 534 433 l20 66 -23 69
c-13 39 -28 71 -33 72 -5 1 -65 -13 -134 -31z"/>
<path d="M1872 5399 c-166 -83 -104 -338 83 -339 19 0 32 -58 189 -872 93
-480 171 -881 174 -890 4 -17 45 -18 688 -18 376 0 684 2 684 5 0 3 74 401
165 885 91 484 165 882 165 884 0 2 17 7 38 11 20 3 53 17 72 30 105 72 101
229 -8 297 l-37 23 -1085 3 -1085 2 -43 -21z"/>
<path d="M8488 4978 c-64 -156 -113 -286 -110 -290 4 -3 385 -126 847 -273
462 -146 853 -271 868 -277 15 -6 30 -8 33 -6 12 13 -30 151 -62 205 -90 150
-270 272 -757 515 -146 72 -167 86 -162 103 3 11 8 37 11 57 l6 37 -74 -6
c-177 -13 -369 64 -448 181 -14 20 -28 36 -31 36 -3 0 -58 -127 -121 -282z"/>
<path d="M11729 4694 c-120 -61 -274 -68 -439 -20 -44 13 -80 22 -80 22 0 -21
90 -659 94 -663 2 -3 132 23 288 57 387 84 563 123 1063 231 237 51 434 96
439 100 5 4 -15 33 -45 64 -71 75 -182 130 -304 152 -76 13 -143 14 -420 9
-181 -4 -364 -9 -405 -12 l-76 -6 -15 48 c-8 26 -19 48 -24 49 -6 1 -39 -13
-76 -31z"/>
<path d="M6099 3941 c-105 -33 -194 -113 -241 -217 -19 -41 -23 -66 -23 -154
0 -99 2 -109 33 -172 78 -158 235 -241 412 -217 122 17 235 100 292 216 40 81
50 197 25 284 -60 205 -292 326 -498 260z m219 -170 c95 -49 147 -157 122
-252 -27 -102 -103 -167 -207 -176 -50 -4 -66 0 -113 24 -170 87 -168 316 5
406 43 23 146 22 193 -2z"/>
<path d="M9558 3941 c-105 -34 -181 -100 -235 -203 -26 -49 -28 -61 -28 -168
0 -106 2 -119 28 -173 146 -296 575 -290 715 11 23 50 27 70 27 157 0 92 -3
106 -32 167 -64 136 -189 219 -338 225 -58 2 -95 -2 -137 -16z m215 -167 c120
-61 167 -197 108 -312 -41 -80 -130 -128 -218 -119 -101 11 -177 76 -203 176
-25 96 28 203 125 254 40 22 146 22 188 1z"/>
<path d="M10570 1535 c-10 -12 -10 -19 -2 -27 22 -22 12 -37 -28 -49 -43 -13
-49 -36 -9 -31 13 1 55 6 93 10 80 8 101 29 34 34 -42 3 -43 4 -43 38 0 39
-23 52 -45 25z"/>
<path d="M10786 1412 c-3 -5 11 -24 31 -43 19 -19 43 -46 52 -61 12 -18 21
-24 31 -18 11 7 11 13 -3 34 -22 33 -21 43 3 49 24 6 27 35 4 44 -11 4 -23 -2
-33 -16 l-17 -22 -19 20 c-19 22 -40 27 -49 13z"/>
<path d="M11144 1396 c-21 -17 -29 -35 -33 -72 -6 -45 -8 -49 -34 -52 -25 -3
-28 -7 -25 -35 2 -27 8 -33 31 -35 l27 -3 0 -105 0 -104 35 0 35 0 0 105 0
105 45 0 c45 0 45 0 45 34 0 34 -1 35 -42 38 -41 3 -43 5 -41 32 3 36 19 48
56 42 25 -5 27 -3 27 28 0 38 -12 46 -65 46 -21 0 -44 -9 -61 -24z"/>
<path d="M12450 1400 c-24 -24 -25 -43 -4 -64 18 -19 55 -21 72 -4 17 17 15
54 -4 72 -21 21 -40 20 -64 -4z"/>
<path d="M10522 1384 c-57 -28 -97 -73 -118 -131 -17 -49 -18 -118 -1 -131 46
-39 269 -33 382 9 85 32 97 45 85 97 -35 152 -205 227 -348 156z m73 -109 c43
-42 23 -106 -37 -121 -22 -5 -34 0 -59 25 -25 25 -30 37 -25 59 15 60 79 80
121 37z m173 9 c26 -18 28 -50 5 -76 -22 -25 -59 -23 -77 4 -21 30 -20 44 4
68 24 24 38 25 68 4z"/>
<path d="M12570 1200 l0 -210 40 0 40 0 0 52 0 52 53 -52 c49 -49 56 -52 102
-52 l49 0 -40 43 c-21 23 -52 56 -68 74 l-28 31 68 66 69 65 -49 1 c-43 0 -53
-4 -100 -46 l-51 -47 -3 117 -3 116 -39 0 -40 0 0 -210z"/>
<path d="M7390 1310 c0 -38 -3 -70 -7 -70 -3 0 -14 7 -23 15 -46 42 -140 22
-174 -36 -25 -42 -25 -135 -1 -177 35 -59 128 -79 175 -37 21 19 30 19 30 0 0
-8 9 -15 20 -15 19 0 20 7 20 195 0 188 -1 195 -20 195 -18 0 -20 -7 -20 -70z
m-31 -96 c28 -23 31 -32 31 -79 0 -68 -6 -82 -42 -101 -91 -47 -173 59 -122
157 27 53 86 63 133 23z"/>
<path d="M9340 1310 l0 -70 -32 20 c-117 71 -231 -70 -169 -207 32 -69 104
-92 169 -53 26 16 32 17 32 5 0 -9 10 -15 25 -15 l25 0 0 195 0 195 -25 0
c-24 0 -25 -2 -25 -70z m-19 -96 c15 -14 19 -31 19 -85 0 -61 -3 -70 -26 -88
-35 -28 -77 -26 -111 3 -25 22 -28 31 -28 86 0 56 3 64 29 87 23 20 37 24 64
19 19 -3 43 -13 53 -22z"/>
<path d="M9600 1185 c0 -188 1 -195 20 -195 11 0 20 7 20 15 0 12 7 11 40 -6
94 -49 180 13 180 131 0 118 -86 180 -180 131 l-40 -21 0 70 c0 63 -2 70 -20
70 -19 0 -20 -7 -20 -195z m182 26 c28 -25 32 -34 32 -81 0 -47 -4 -56 -32
-81 -38 -34 -65 -36 -109 -9 -32 19 -33 21 -33 90 0 69 1 71 33 90 44 27 71
25 109 -9z"/>
<path d="M10392 1356 c-20 -27 -42 -34 -42 -15 0 6 -10 9 -22 7 -29 -4 -30
-30 -1 -43 19 -8 22 -15 16 -47 -4 -30 -2 -38 9 -38 9 0 18 13 21 30 4 16 19
48 33 70 19 28 24 44 17 51 -7 7 -17 2 -31 -15z"/>
<path d="M8074 1355 c-8 -21 2 -45 19 -45 20 0 40 27 33 45 -7 19 -45 20 -52
0z"/>
<path d="M7561 1262 c-45 -24 -71 -74 -71 -136 0 -111 100 -176 204 -132 38
16 53 33 39 47 -6 6 -21 4 -39 -6 -45 -23 -89 -19 -123 13 -17 15 -31 36 -33
47 -3 19 3 20 110 23 l112 3 0 27 c0 42 -33 95 -71 114 -44 23 -86 23 -128 0z
m123 -44 c13 -13 27 -33 31 -45 6 -23 5 -23 -89 -23 l-95 0 11 30 c21 61 95
80 142 38z"/>
<path d="M7850 1267 c-34 -17 -55 -57 -46 -90 7 -30 40 -49 113 -67 52 -13 69
-38 47 -68 -19 -28 -77 -29 -120 -3 -30 18 -31 18 -43 -1 -10 -17 -7 -21 35
-40 90 -39 184 -3 184 71 0 38 -34 66 -102 86 -70 20 -83 33 -62 63 19 27 78
30 113 6 19 -14 25 -14 32 -3 14 22 11 26 -31 43 -48 19 -86 20 -120 3z"/>
<path d="M8255 1270 c-46 -18 -69 -58 -73 -124 -7 -102 34 -157 118 -158 28 0
52 7 71 21 l29 22 0 -31 c0 -22 -10 -41 -30 -62 -28 -27 -36 -30 -76 -25 -25
2 -53 12 -62 20 -16 15 -19 15 -30 -3 -10 -17 -8 -22 21 -37 40 -21 125 -23
161 -3 49 26 56 54 56 225 0 148 -1 155 -20 155 -11 0 -20 -7 -20 -15 0 -12
-6 -12 -37 5 -39 21 -74 24 -108 10z m113 -50 c31 -19 32 -22 32 -83 0 -55 -3
-67 -25 -87 -36 -34 -90 -33 -121 3 -32 38 -40 87 -19 130 27 57 77 71 133 37z"/>
<path d="M8598 1261 c-31 -17 -38 -18 -38 -6 0 8 -9 15 -20 15 -19 0 -20 -7
-20 -140 0 -133 1 -140 20 -140 19 0 20 7 20 103 0 117 8 133 71 143 63 10 74
-9 77 -135 3 -101 5 -111 23 -111 18 0 19 9 19 119 0 98 -3 122 -18 141 -25
31 -87 36 -134 11z"/>
<path d="M8881 1262 c-45 -24 -71 -74 -71 -136 0 -111 100 -176 204 -132 38
16 53 33 39 47 -6 6 -21 4 -39 -6 -45 -23 -89 -19 -123 13 -17 15 -31 36 -33
47 -3 19 3 20 110 23 l112 3 0 27 c0 42 -33 95 -71 114 -44 23 -86 23 -128 0z
m123 -44 c13 -13 27 -33 31 -45 6 -23 5 -23 -89 -23 l-95 0 11 30 c21 61 95
80 142 38z"/>
<path d="M11402 1264 c-12 -8 -22 -10 -22 -5 0 6 -18 11 -40 11 l-40 0 0 -140
0 -140 40 0 40 0 0 86 c0 47 5 94 10 104 6 11 26 22 45 26 35 6 71 46 60 64
-10 15 -68 12 -93 -6z"/>
<path d="M11553 1260 c-43 -26 -67 -74 -67 -136 0 -59 19 -95 67 -124 40 -25
116 -26 163 -4 38 18 42 33 16 58 -17 15 -22 15 -55 1 -47 -20 -106 1 -107 37
0 4 44 9 98 10 l97 3 3 28 c5 43 -33 112 -72 131 -46 22 -104 20 -143 -4z
m125 -77 l14 -23 -61 0 c-63 0 -72 7 -45 35 23 22 73 16 92 -12z"/>
<path d="M11864 1264 c-66 -32 -94 -141 -56 -213 37 -68 149 -94 221 -50 l33
20 -21 23 c-21 22 -24 23 -61 10 -46 -16 -83 -6 -100 26 -10 20 -8 20 90 20
l100 0 0 43 c0 106 -108 170 -206 121z m120 -76 c15 -25 5 -29 -58 -26 l-57 3
17 23 c12 18 24 22 51 20 20 -2 41 -10 47 -20z"/>
<path d="M12208 1264 c-16 -8 -28 -10 -28 -4 0 5 -16 10 -35 10 l-35 0 0 -200
0 -200 35 0 35 0 0 70 0 71 32 -17 c67 -35 153 -1 184 73 54 126 -73 260 -188
197z m93 -73 c18 -14 24 -29 24 -61 0 -70 -64 -103 -116 -61 -18 14 -24 29
-24 61 0 47 29 80 70 80 13 0 33 -9 46 -19z"/>
<path d="M8080 1130 c0 -133 1 -140 20 -140 19 0 20 7 20 140 0 133 -1 140
-20 140 -19 0 -20 -7 -20 -140z"/>
<path d="M9880 1266 c0 -2 25 -63 55 -136 30 -73 55 -140 55 -150 0 -28 -40
-72 -61 -67 -11 3 -19 -2 -22 -14 -7 -26 32 -35 70 -15 29 14 53 65 180 374 3
8 -4 12 -20 12 -22 0 -29 -11 -67 -102 -23 -57 -45 -106 -49 -110 -3 -4 -26
42 -50 103 -39 95 -47 109 -68 109 -12 0 -23 -2 -23 -4z"/>
<path d="M12440 1130 l0 -140 40 0 40 0 0 140 0 140 -40 0 -40 0 0 -140z"/>
<path d="M10856 1131 c-10 -16 -127 -50 -213 -62 -58 -8 -101 -8 -149 0 -38 6
-70 8 -73 6 -10 -11 88 -91 126 -103 90 -27 177 -11 241 44 40 34 89 110 79
121 -3 2 -8 0 -11 -6z"/>
</g>
</svg>
