<?xml version="1.0" standalone="no"?>
<!DOCTYPE svg PUBLIC "-//W3C//DTD SVG 20010904//EN"
 "http://www.w3.org/TR/2001/REC-SVG-20010904/DTD/svg10.dtd">
<svg version="1.0" xmlns="http://www.w3.org/2000/svg"
 width="2000.000000pt" height="2000.000000pt" viewBox="0 0 2000.000000 2000.000000"
 preserveAspectRatio="xMidYMid meet">

<g transform="translate(0.000000,2000.000000) scale(0.100000,-0.100000)"
fill="#000000" stroke="none">
<path d="M11460 17971 c-40 -7 -39 -5 -20 -85 26 -111 -13 -240 -102 -329
-125 -125 -320 -142 -469 -42 -61 42 -53 47 -114 -80 -68 -141 -82 -213 -105
-530 -52 -718 -68 -828 -225 -1537 -147 -658 -295 -1222 -419 -1593 -92 -272
-101 -319 -101 -510 0 -172 9 -221 63 -334 l25 -54 -26 -47 c-15 -26 -24 -50
-20 -54 3 -3 2 -6 -4 -6 -12 0 -56 -68 -56 -87 0 -7 -4 -13 -8 -13 -5 0 -13
-9 -19 -21 -9 -15 -8 -24 2 -37 12 -15 11 -16 -4 -3 -16 12 -22 9 -19 -11 0
-5 -4 -8 -10 -8 -5 0 -7 -4 -4 -10 3 -5 2 -10 -4 -10 -9 0 -22 -20 -53 -80 -7
-14 -20 -36 -30 -49 -10 -13 -15 -28 -11 -34 3 -5 1 -7 -5 -3 -11 7 -25 -23
-20 -45 2 -8 10 -20 18 -27 11 -10 11 -11 1 -6 -11 5 -13 1 -8 -17 3 -13 11
-52 18 -86 9 -41 16 -58 22 -50 5 7 6 4 2 -10 -5 -18 25 -176 100 -523 8 -36
26 -121 40 -190 35 -166 31 -158 60 -130 17 16 22 27 15 34 -5 5 -10 15 -10
20 0 6 4 5 9 -3 8 -12 12 -12 25 -2 21 18 20 32 -1 25 -14 -5 -15 -4 -4 4 8 6
20 8 27 5 12 -4 37 30 39 52 1 6 6 9 12 8 11 -2 73 67 73 82 0 4 -7 5 -15 2
-8 -4 -17 -2 -19 2 -3 5 7 8 22 7 15 0 27 1 28 4 1 3 24 29 53 58 28 30 49 58
46 62 -3 5 0 12 6 16 8 5 10 2 5 -7 -4 -8 4 0 18 16 14 17 24 36 21 44 -3 9 0
11 10 7 8 -3 16 -1 16 4 1 6 2 14 3 19 0 5 5 13 10 18 5 5 6 3 2 -4 -4 -7 -4
-13 1 -13 13 1 98 111 97 125 -1 7 5 11 12 8 8 -3 17 2 20 11 3 9 20 31 38 49
44 46 96 109 96 118 0 4 7 10 16 13 10 4 37 -13 77 -50 40 -36 96 -72 158
-102 l97 -47 7 -68 c4 -37 8 -82 10 -100 1 -17 7 -47 13 -65 6 -18 7 -30 2
-27 -5 3 -7 -34 -6 -82 4 -116 4 -115 19 -107 7 5 6 0 -3 -11 -13 -17 -13 -18
0 -10 12 6 12 5 3 -5 -12 -13 -7 -40 9 -40 5 0 7 4 4 8 -2 4 0 14 6 22 8 13 9
13 5 -1 -9 -27 10 -43 51 -43 22 -1 38 -4 36 -8 -2 -3 10 -11 26 -17 17 -5 30
-7 30 -4 0 3 6 0 14 -6 7 -6 25 -12 40 -13 14 -1 26 -5 26 -8 0 -3 12 -10 28
-16 22 -8 30 -6 45 8 9 10 16 20 15 22 -2 2 1 8 5 13 5 4 7 2 5 -6 -2 -7 5
-15 15 -16 9 -2 17 0 17 4 0 5 11 6 25 3 13 -2 33 -1 42 3 10 5 24 7 32 6 8
-2 10 2 5 11 -6 10 -5 11 8 1 8 -7 17 -10 20 -7 3 3 36 7 72 9 36 2 71 7 78
11 6 4 40 9 76 10 66 4 97 17 85 38 -3 6 3 3 14 -6 25 -22 53 -23 53 -2 0 10
-6 14 -15 11 -8 -4 -17 -1 -21 6 -4 7 -4 9 1 5 4 -4 16 -3 25 2 13 7 22 5 31
-7 10 -12 10 -15 2 -9 -7 4 -13 2 -13 -3 0 -6 14 -11 31 -11 25 0 30 3 25 16
-5 14 -4 15 9 4 9 -7 28 -10 47 -6 18 3 49 7 68 10 19 2 60 7 90 11 30 3 62 9
70 12 8 3 31 7 50 8 19 1 58 5 85 10 73 11 86 12 123 14 18 0 31 5 28 9 -2 4
14 7 37 7 51 -2 69 3 60 18 -3 6 -1 7 5 3 17 -10 53 -16 48 -8 -2 4 27 8 65 9
38 1 75 5 82 10 6 4 25 6 41 4 18 -2 26 1 22 8 -5 7 -1 8 9 4 10 -3 21 0 26 8
7 12 9 12 9 0 0 -9 6 -11 18 -6 9 4 32 7 51 6 18 -1 39 3 47 10 8 6 14 8 14 4
0 -4 8 -1 17 6 11 10 14 10 9 2 -5 -10 -1 -11 16 -4 13 4 29 6 37 3 8 -3 11 0
7 6 -3 6 -2 14 4 17 6 4 9 1 8 -6 -2 -6 3 -14 11 -17 8 -3 11 0 7 7 -4 7 -1 9
8 5 14 -5 180 11 217 22 10 3 15 17 16 44 0 22 -2 38 -6 36 -3 -2 -5 30 -3 71
2 41 1 82 -3 91 -6 15 -10 74 -16 262 -2 75 -7 93 -23 83 -6 -4 -5 0 2 9 10
13 12 42 8 115 -3 54 -9 159 -12 233 -3 74 -9 140 -13 145 -4 6 -6 44 -5 85 2
55 -1 79 -12 91 -11 12 -12 19 -4 24 14 9 10 119 -6 150 -7 14 -8 23 -3 19 13
-8 8 84 -5 105 -6 9 -5 12 1 8 10 -6 10 5 -2 148 -2 33 -6 94 -8 135 -6 109
-6 112 -15 106 -4 -2 -8 4 -8 14 0 10 4 16 9 13 4 -2 6 25 4 62 -2 44 1 72 9
83 8 9 14 13 14 8 0 -5 6 -4 13 2 9 8 12 4 13 -16 0 -15 4 -88 9 -162 4 -74 7
-146 6 -159 0 -12 1 -27 4 -31 3 -5 7 -64 10 -132 8 -213 17 -323 29 -337 8
-12 8 -13 -2 -7 -9 6 -11 0 -7 -23 3 -16 6 -48 7 -70 1 -22 5 -38 11 -34 5 3
4 -5 -3 -17 -7 -12 -9 -33 -5 -48 4 -15 7 -56 6 -91 -2 -74 5 -104 22 -95 8 5
8 2 0 -7 -15 -16 -17 -33 -3 -24 6 4 5 -4 -1 -19 -10 -20 -9 -29 2 -43 9 -11
10 -14 2 -9 -9 5 -13 0 -13 -17 0 -13 2 -26 5 -29 3 -3 8 -79 11 -169 3 -89 8
-168 12 -173 3 -6 6 -22 6 -36 0 -14 7 -28 15 -32 14 -6 14 -7 -1 -7 -15 -1
-17 -9 -14 -53 2 -29 4 -61 5 -71 0 -10 6 -15 11 -12 6 3 10 1 10 -4 0 -6 -4
-11 -10 -11 -5 0 -10 -12 -10 -26 0 -17 4 -23 13 -18 9 6 9 4 2 -7 -6 -8 -10
-61 -9 -125 2 -90 -1 -111 -12 -111 -10 0 -11 4 -4 11 5 5 10 14 10 18 0 9
-98 0 -115 -10 -5 -4 -26 -7 -45 -8 -37 -1 -68 -5 -283 -35 -76 -10 -143 -19
-148 -19 -6 0 -7 -5 -3 -12 5 -7 3 -8 -7 -2 -19 12 -50 6 -72 -14 -15 -14 -18
-14 -15 -2 2 8 -3 14 -10 12 -7 -1 -37 -5 -65 -8 -29 -2 -95 -11 -147 -19 -52
-7 -117 -17 -145 -20 -71 -9 -95 -16 -95 -27 0 -5 5 -6 12 -2 7 5 8 3 3 -6 -6
-10 -11 -10 -20 4 -11 14 -20 15 -71 6 -33 -5 -75 -12 -94 -14 -142 -15 -170
-19 -170 -26 0 -4 -15 -6 -32 -5 -18 2 -37 1 -41 -2 -5 -3 -27 -7 -50 -8 -23
-2 -76 -9 -117 -15 -41 -6 -91 -13 -110 -15 -19 -3 -51 -8 -70 -11 -36 -5
-101 -14 -133 -17 -10 -1 -22 -9 -27 -17 -8 -12 -10 -12 -10 -1 0 8 -3 12 -6
9 -3 -4 -18 -3 -34 2 -28 8 -28 8 -18 -21 5 -16 14 -27 18 -24 5 3 11 1 14 -4
4 -5 1 -13 -5 -17 -8 -5 -9 -3 -4 6 5 8 4 11 -3 6 -12 -7 -6 -31 12 -55 9 -12
8 -13 -3 -6 -11 6 -12 1 -7 -26 9 -49 9 -51 1 -83 -5 -18 -4 -27 2 -23 5 3 10
0 10 -8 0 -8 -4 -12 -9 -9 -4 3 -8 -11 -8 -31 0 -21 4 -34 10 -30 6 3 7 -1 4
-9 -3 -9 -11 -13 -16 -9 -7 4 -9 -4 -6 -21 3 -14 1 -29 -3 -32 -5 -3 -9 -14
-9 -24 0 -13 -12 -22 -37 -30 -21 -7 -41 -16 -46 -19 -13 -13 -130 -1 -199 19
-77 23 -86 24 -70 8 7 -7 12 -17 12 -22 0 -6 -5 -4 -10 4 -8 13 -10 12 -10 -2
0 -16 12 -18 95 -19 52 -1 101 -2 108 -3 14 -1 46 -54 47 -78 0 -9 6 -19 13
-22 10 -5 10 -7 0 -12 -7 -3 -13 -14 -13 -23 0 -10 -9 -30 -21 -45 l-20 -26
-4405 0 -4406 0 -29 -30 -30 -30 3 -156 c3 -150 4 -157 27 -175 22 -18 45 -19
461 -19 l437 0 -1 -41 c0 -32 5 -45 23 -60 22 -18 52 -19 802 -19 428 0 779
-3 779 -8 0 -4 -544 -1613 -1210 -3576 -665 -1963 -1210 -3575 -1210 -3582 0
-11 25 -14 124 -14 l124 0 75 223 c209 622 2229 6572 2232 6576 6 5 -156 479
1160 -3402 629 -1858 1147 -3383 1150 -3388 4 -5 62 -9 131 -9 l125 0 -7 23
c-4 12 -551 1626 -1215 3587 -665 1961 -1209 3566 -1209 3568 0 1 1294 2 2875
1 2116 -1 2875 -5 2875 -13 0 -6 -4 -28 -9 -48 -6 -26 -5 -39 3 -42 7 -3 7 -5
-1 -5 -7 -1 -13 -8 -13 -16 0 -20 10 -19 25 2 9 13 14 13 20 3 5 -9 4 -11 -3
-6 -7 4 -12 2 -12 -3 0 -6 3 -11 6 -11 9 0 337 -29 399 -35 117 -12 407 -47
495 -60 52 -8 115 -17 140 -21 71 -10 78 -11 205 -38 66 -14 152 -35 190 -46
39 -11 75 -22 80 -23 6 -2 28 -13 50 -24 22 -11 42 -21 45 -20 3 0 18 -11 34
-26 16 -15 32 -24 37 -21 5 3 9 0 9 -6 0 -7 7 -10 15 -7 8 4 17 1 21 -5 4 -7
3 -8 -4 -4 -26 16 -10 -12 18 -32 28 -21 42 -18 20 4 -7 7 -7 11 3 11 7 0 14
-9 14 -20 2 -20 53 -81 61 -72 2 2 15 -9 29 -26 14 -16 28 -27 33 -24 4 3 11
-2 14 -11 3 -8 11 -12 17 -8 8 4 9 3 5 -4 -4 -7 3 -17 18 -24 14 -6 26 -15 26
-21 0 -5 7 -7 15 -3 8 3 14 0 12 -7 -1 -7 4 -11 11 -9 8 1 11 -2 8 -7 -8 -13
34 -42 48 -34 6 3 8 3 4 -2 -10 -11 29 -38 42 -30 6 3 10 0 10 -8 0 -16 46
-50 67 -50 7 0 10 -4 7 -9 -3 -4 2 -8 10 -8 9 0 16 -5 16 -12 0 -6 3 -9 6 -5
4 3 13 0 21 -8 8 -8 23 -15 34 -15 10 0 19 -5 19 -10 0 -6 21 -20 48 -32 26
-11 65 -30 87 -41 22 -12 40 -20 40 -18 0 1 13 -3 29 -9 16 -6 38 -8 50 -5 15
5 17 4 8 -3 -15 -10 90 -40 176 -50 101 -11 262 -13 262 -3 0 6 6 8 14 5 16
-6 18 15 19 171 1 217 -5 295 -22 305 -12 7 -12 9 -2 10 14 0 13 31 -4 170 -3
19 -5 43 -5 53 -1 11 -6 15 -13 10 -7 -4 -7 -1 1 10 8 9 10 22 6 28 -4 7 -9
28 -10 47 -7 103 -23 174 -38 165 -6 -3 -6 -1 2 8 15 16 16 39 1 39 -5 0 -7
-5 -3 -12 4 -6 3 -8 -3 -5 -7 4 -7 18 1 42 l11 35 392 0 c216 0 393 -4 393 -8
0 -39 -344 -1862 -361 -1909 l-21 -63 -2094 0 -2094 0 0 -235 0 -235 829 0
829 0 4 -116 c4 -167 -30 -154 397 -154 284 0 351 3 367 14 16 12 20 30 24
133 l5 118 779 3 c429 1 783 -1 786 -5 4 -5 -352 -1065 -791 -2358 -439 -1292
-798 -2353 -798 -2357 -1 -5 55 -8 124 -8 110 0 127 2 133 17 4 10 365 1073
802 2363 l796 2345 150 5 c162 5 185 12 221 67 15 23 19 60 24 248 l6 220 132
710 c72 391 139 733 148 760 14 44 33 81 33 63 0 -4 484 -1435 1076 -3180 592
-1745 1110 -3273 1151 -3396 l75 -222 124 0 c99 0 124 3 124 14 0 7 -544 1619
-1210 3582 -665 1963 -1210 3572 -1210 3576 0 5 351 8 779 8 750 0 780 1 802
19 18 15 23 28 23 60 l-1 41 437 0 c416 0 439 1 461 19 23 18 24 25 27 175 l3
156 -30 30 -29 30 -1360 0 c-1231 0 -1360 2 -1366 16 -11 28 -7 844 4 865 10
18 23 19 220 19 116 0 210 4 210 9 0 4 88 485 196 1067 183 991 195 1065 191
1149 -8 159 -84 294 -215 382 -109 74 -158 83 -426 82 l-231 0 62 -20 c132
-41 256 -158 309 -288 20 -49 28 -90 31 -156 5 -85 -11 -174 -271 -1585 -152
-822 -278 -1505 -281 -1517 l-5 -23 -512 0 c-281 0 -509 3 -505 6 3 3 -1 27
-9 52 -7 26 -14 52 -14 58 0 7 31 13 78 17 81 6 145 23 137 37 -3 4 3 6 13 3
11 -2 25 2 33 9 8 8 22 17 32 21 9 3 17 14 17 23 0 10 6 14 14 11 17 -7 51 27
42 42 -4 5 -1 13 5 17 8 5 9 3 4 -6 -6 -9 -4 -11 4 -6 7 5 10 14 7 22 -3 7 0
16 6 20 7 5 8 2 3 -7 -8 -12 -6 -12 9 0 9 8 15 20 12 28 -3 8 -2 12 3 9 10 -6
33 42 26 54 -3 5 -1 10 4 12 6 1 13 17 18 33 12 45 15 2997 4 3074 -6 35 -18
73 -28 84 -10 11 -12 17 -5 13 6 -4 12 -5 12 -1 0 14 -32 81 -47 97 -9 10 -13
18 -9 18 4 0 -2 14 -14 30 -12 17 -25 30 -29 30 -5 0 -25 -11 -45 -25 -20 -13
-36 -22 -36 -19 0 2 -18 -5 -40 -16 -22 -11 -40 -23 -40 -26 0 -3 5 -2 11 2 7
4 6 -3 -2 -17 -7 -13 -13 -27 -12 -30 1 -3 -5 -6 -13 -6 -12 0 -12 3 1 17 8 9
12 20 8 23 -10 10 -25 8 -19 -2 3 -5 -2 -8 -12 -7 -9 0 -16 -4 -15 -11 2 -7
-6 -10 -19 -8 -12 3 -34 -3 -48 -12 -14 -10 -29 -16 -35 -15 -5 1 1 -7 15 -19
14 -11 19 -18 12 -14 -7 4 -21 1 -30 -7 -15 -11 -16 -11 -4 3 10 14 10 18 -3
23 -8 3 -15 0 -15 -6 0 -6 -3 -9 -6 -5 -8 8 -64 -13 -64 -25 0 -5 -4 -6 -10
-3 -9 6 -70 -21 -70 -31 0 -3 5 -2 12 2 7 4 8 3 4 -5 -6 -8 -12 -9 -20 -2 -7
6 -16 7 -20 3 -4 -4 -11 -7 -14 -8 -9 -1 -40 -13 -77 -28 -17 -8 -44 -16 -62
-20 -17 -4 -37 -13 -43 -21 -6 -8 -18 -11 -26 -8 -8 3 -14 0 -14 -7 0 -6 -4
-9 -9 -5 -5 3 -20 1 -33 -4 -45 -18 -63 -24 -86 -28 -12 -2 -35 -9 -50 -15
-15 -6 -30 -12 -34 -12 -3 -1 -10 -5 -15 -10 -5 -6 -2 -6 7 -1 8 5 12 4 7 0
-11 -12 -38 -15 -31 -4 6 10 -40 2 -61 -9 -5 -4 -16 -7 -25 -9 -8 -1 -35 -7
-60 -13 -46 -11 -66 -15 -129 -29 -23 -5 -35 -13 -33 -22 3 -10 1 -11 -8 -3
-15 15 -83 6 -93 -12 -4 -8 -13 -14 -20 -14 -8 0 -6 4 3 11 11 8 3 9 -30 4
-25 -4 -51 -7 -57 -8 -7 0 -13 -3 -13 -6 0 -3 -24 -7 -53 -8 -115 -4 -212 -18
-209 -32 1 -8 -2 -10 -10 -5 -22 14 -50 15 -66 2 -11 -9 -14 -9 -9 -1 5 9 -4
11 -35 9 -24 -2 -72 -4 -107 -4 -55 -2 -62 -4 -57 -19 6 -17 5 -17 -7 -1 -11
14 -29 17 -99 15 -48 -1 -84 1 -81 5 2 5 -5 8 -16 8 -11 0 -23 -5 -26 -10 -5
-8 -11 -7 -20 0 -8 7 -29 11 -47 9 -18 -1 -40 1 -48 4 -8 3 -46 8 -85 10 -38
2 -78 8 -88 12 -9 4 -29 5 -42 2 -14 -2 -28 -1 -30 3 -3 5 -29 12 -58 16 -28
4 -54 8 -57 9 -13 4 -87 19 -100 20 -8 1 -22 5 -30 8 -47 18 -95 26 -106 16
-8 -7 -15 -6 -20 2 -4 8 -3 9 4 5 7 -4 12 -2 12 3 0 6 -9 12 -20 12 -24 2 -28
3 -63 17 -15 7 -31 11 -35 10 -4 -1 -29 9 -56 21 -35 16 -52 18 -61 11 -11 -9
-12 -7 -8 10 8 29 84 81 388 265 392 239 535 332 588 383 55 54 109 155 133
252 20 80 23 256 5 358 l-13 72 -117 0 c-223 0 -374 62 -526 214 -73 73 -99
107 -133 176 -74 152 -75 153 -79 718 l-5 502 736 0 c644 0 736 -2 736 -15 0
-8 45 -414 100 -902 81 -718 105 -903 124 -968 75 -243 283 -426 535 -471 73
-13 431 -20 431 -9 0 3 -18 77 -39 163 -75 297 -139 638 -181 957 -33 257 -50
495 -60 844 -10 350 -17 426 -51 601 -82 413 -276 687 -555 785 -68 24 -98 28
-224 32 -237 8 -244 21 94 -172 164 -93 301 -176 304 -183 17 -46 -29 -26
-294 126 -154 87 -288 164 -299 170 -19 10 -20 7 -20 -91 0 -90 -3 -109 -27
-159 -37 -79 -98 -142 -177 -181 -60 -29 -74 -32 -161 -32 -85 0 -101 3 -154
29 -79 39 -140 102 -179 184 -28 59 -32 77 -31 147 1 47 8 97 17 123 l16 42
-77 -1 c-42 -1 -93 -4 -112 -8z m2535 -3621 c-3 -5 -12 -10 -18 -10 -7 0 -6 4
3 10 19 12 23 12 15 0z m-88 -55 c0 -8 -4 -12 -9 -9 -5 3 -6 10 -3 15 9 13 12
11 12 -6z m128 -25 c3 -5 1 -10 -4 -10 -6 0 -11 5 -11 10 0 6 2 10 4 10 3 0 8
-4 11 -10z m78 -143 c3 -8 -1 -14 -8 -14 -7 0 -11 6 -8 14 3 7 6 13 8 13 2 0
5 -6 8 -13z m-520 -14 c-3 -7 -15 -18 -27 -24 -20 -10 -20 -9 -2 5 10 8 16 19
12 24 -3 5 1 9 8 9 8 0 12 -6 9 -14z m-246 -80 c0 -8 -6 -9 -17 -3 -10 5 -21
6 -25 2 -5 -4 -6 -2 -2 3 8 15 44 13 44 -2z m-2630 -82 c-1 -15 -4 -17 -14 -9
-15 12 -17 22 -3 13 6 -3 10 -1 10 4 0 6 2 11 4 11 3 0 4 -9 3 -19z m2216 -16
c-3 -9 -8 -14 -10 -11 -3 3 -2 9 2 15 9 16 15 13 8 -4z m-1753 -60 c-5 -7 -9
-14 -7 -16 1 -2 0 -3 -2 -1 -11 7 -7 29 5 29 9 0 11 -4 4 -12z m-543 -10 c0
-8 -4 -12 -9 -9 -5 3 -6 10 -3 15 9 13 12 11 12 -6z m598 3 c5 4 5 1 1 -6 -6
-10 -11 -10 -22 -1 -8 6 -14 14 -14 16 0 3 6 0 13 -6 8 -6 18 -7 22 -3z m52
-13 c0 -8 -4 -12 -9 -9 -5 3 -6 10 -3 15 9 13 12 11 12 -6z m-677 -21 c0 -8
-19 -13 -24 -6 -3 5 1 9 9 9 8 0 15 -2 15 -3z m1554 -53 c-5 -6 -34 20 -34 30
0 5 8 1 18 -8 10 -10 17 -20 16 -22z m-1537 22 c-4 -3 -1 -13 6 -22 11 -14 10
-14 -5 -2 -16 12 -16 31 -1 31 4 0 3 -3 0 -7z m1358 -13 c-10 -11 -22 -20 -28
-20 -5 0 1 9 14 20 31 25 37 25 14 0z m-57 -15 c2 -2 -7 -2 -21 -1 -13 0 -24
6 -24 13 0 9 6 9 21 1 12 -6 22 -12 24 -13z m-241 0 c0 -8 -4 -12 -9 -9 -5 3
-6 10 -3 15 9 13 12 11 12 -6z m173 0 c0 -1 -8 -5 -18 -7 -11 -3 -19 0 -19 7
0 7 8 10 19 7 10 -2 18 -6 18 -7z m-1308 -49 c7 4 8 2 4 -5 -9 -13 -26 -5 -25
12 0 9 2 8 6 -1 2 -6 10 -9 15 -6z m476 -63 c0 -5 2 -16 7 -27 5 -11 3 -26 -4
-38 -6 -10 -9 -24 -5 -30 4 -7 3 -8 -4 -4 -8 5 -12 0 -12 -13 0 -12 -4 -21 -8
-21 -5 0 -14 -12 -20 -26 -7 -14 -8 -23 -2 -19 6 3 7 -1 4 -9 -3 -9 -11 -13
-18 -9 -6 4 -4 -2 4 -12 8 -10 10 -16 3 -12 -14 9 -33 -22 -25 -42 3 -10 0
-11 -9 -5 -12 6 -12 5 -1 -8 10 -13 10 -18 1 -24 -8 -5 -10 -3 -4 7 5 10 5 11
-3 4 -15 -15 -51 -139 -41 -143 5 -2 2 -11 -7 -19 -9 -9 -14 -26 -11 -40 2
-12 1 -23 -3 -23 -4 0 -7 -6 -8 -12 0 -7 -5 -36 -10 -65 -5 -29 -5 -50 0 -47
4 3 8 1 8 -5 0 -5 -4 -12 -9 -16 -15 -8 -12 -117 2 -109 7 3 4 -1 -5 -9 -21
-17 -23 -38 -5 -56 9 -11 9 -12 0 -7 -9 5 -11 2 -7 -8 3 -8 13 -12 22 -10 15
5 15 4 0 -6 -21 -13 -24 -50 -5 -50 8 0 9 -2 1 -8 -15 -9 -10 -88 7 -109 12
-14 12 -16 0 -8 -11 6 -13 3 -8 -16 4 -13 7 -37 7 -52 0 -16 4 -26 8 -23 4 3
7 -7 6 -22 -1 -15 3 -38 8 -52 7 -20 11 -22 18 -10 5 8 12 11 17 7 4 -5 1 -12
-7 -17 -8 -5 -14 -24 -14 -42 -1 -26 -5 -33 -21 -33 -11 0 -27 -4 -35 -9 -12
-8 -13 -7 -3 5 13 16 6 72 -8 63 -5 -3 -6 -10 -3 -16 4 -7 2 -8 -5 -4 -9 6 -9
11 -1 21 11 13 3 98 -9 91 -3 -2 -7 26 -9 62 -1 36 -7 70 -12 77 -5 6 -7 15
-3 18 3 4 1 7 -7 7 -9 0 -9 4 -2 13 12 15 14 117 2 117 -4 0 -6 10 -2 22 3 14
2 19 -6 14 -16 -10 -15 7 0 22 16 16 19 125 4 134 -8 6 -8 8 1 8 12 0 20 27
28 105 6 62 13 94 34 164 6 19 8 37 6 42 -3 4 -1 9 5 11 6 2 11 17 13 35 1 17
6 29 11 25 5 -3 7 5 4 16 -4 12 -3 20 2 17 4 -2 14 13 22 34 12 29 13 42 4 51
-8 8 -6 9 9 4 11 -4 17 -3 12 1 -4 5 1 17 10 28 11 12 12 17 4 12 -10 -6 -12
-4 -7 4 4 6 2 20 -6 29 -11 15 -11 16 3 4 14 -10 20 -10 33 3 18 19 22 40 4
29 -7 -4 -8 -3 -4 5 4 6 11 9 15 6 5 -2 16 4 26 15 19 21 26 25 23 13z m-128
-83 c0 -5 -2 -10 -4 -10 -3 0 -8 5 -11 10 -3 6 -1 10 4 10 6 0 11 -4 11 -10z
m-484 -35 c-1 -8 -5 -17 -8 -21 -5 -4 -4 16 1 34 3 9 9 -1 7 -13z m621 -10 c0
-8 -4 -12 -9 -9 -5 3 -6 10 -3 15 9 13 12 11 12 -6z m-641 -67 c0 -17 -2 -17
-12 -4 -6 9 -15 12 -19 8 -5 -4 -5 -2 -2 4 10 18 33 12 33 -8z m628 -16 c3 -5
-1 -9 -9 -9 -8 0 -12 4 -9 9 3 4 7 8 9 8 2 0 6 -4 9 -8z m-209 -92 c2 -12 1
-20 -2 -16 -4 4 -8 16 -10 28 -4 28 6 18 12 -12z m2472 -42 c-3 -8 -6 -5 -6 6
-1 11 2 17 5 13 3 -3 4 -12 1 -19z m128 12 c3 -6 -1 -7 -9 -4 -18 7 -21 14 -7
14 6 0 13 -4 16 -10z m-3148 -35 c0 -8 -4 -12 -9 -9 -5 3 -6 10 -3 15 9 13 12
11 12 -6z m689 0 c-1 -8 -5 -17 -8 -21 -5 -4 -4 16 1 34 3 9 9 -1 7 -13z
m2349 -143 c-3 -3 -11 0 -18 7 -9 10 -8 11 6 5 10 -3 15 -9 12 -12z m-3240
-251 c-6 -5 -25 10 -25 20 0 5 6 4 14 -3 8 -7 12 -15 11 -17z m-95 -146 c-7
-8 -17 -15 -23 -15 -6 0 -2 7 9 15 25 19 30 19 14 0z m3360 -19 c0 -3 -4 -8
-10 -11 -5 -3 -10 -1 -10 4 0 6 5 11 10 11 6 0 10 -2 10 -4z m-2555 -26 c3 -6
-1 -7 -9 -4 -18 7 -21 14 -7 14 6 0 13 -4 16 -10z m2542 -32 c-3 -8 -6 -5 -6
6 -1 11 2 17 5 13 3 -3 4 -12 1 -19z m-3397 -74 c0 -2 -9 0 -20 6 -11 6 -20
13 -20 16 0 2 9 0 20 -6 11 -6 20 -13 20 -16z m-96 -73 c3 -5 -2 -15 -12 -22
-15 -12 -16 -12 -5 2 7 9 10 19 6 22 -3 4 -4 7 0 7 3 0 8 -4 11 -9z m767 -394
c-6 -8 -9 -16 -6 -19 3 -2 -2 -5 -10 -5 -13 0 -13 3 2 19 19 21 31 25 14 5z
m-40 -74 c13 -16 12 -17 -3 -4 -17 13 -22 21 -14 21 2 0 10 -8 17 -17z m2823
-19 c3 -8 2 -12 -4 -9 -6 3 -10 10 -10 16 0 14 7 11 14 -7z m-2864 -20 c0 -8
-19 -13 -24 -6 -3 5 1 9 9 9 8 0 15 -2 15 -3z m3003 -229 c-3 -9 -8 -14 -10
-11 -3 3 -2 9 2 15 9 16 15 13 8 -4z m-2488 -74 c-9 -8 -36 -10 -30 -2 2 4 11
8 20 8 8 0 13 -3 10 -6z m-892 -138 c-3 -7 -6 -13 -8 -13 -2 0 -5 6 -8 13 -3
8 1 14 8 14 7 0 11 -6 8 -14z m2787 7 c0 -5 -8 -10 -17 -10 -15 0 -16 2 -3 10
19 12 20 12 20 0z m-1888 -39 c-4 -10 -7 -11 -10 -3 -2 7 -9 9 -14 6 -6 -4 -8
-3 -5 3 10 16 36 11 29 -6z m2473 9 c3 -6 -1 -7 -9 -4 -18 7 -21 14 -7 14 6 0
13 -4 16 -10z m-79 -25 c-11 -8 -25 -15 -30 -15 -6 1 0 7 14 15 32 19 40 18
16 0z m-3322 -3 c3 -5 -1 -9 -9 -9 -8 0 -12 4 -9 9 3 4 7 8 9 8 2 0 6 -4 9 -8z
m2280 -43 c3 -3 -5 -5 -19 -5 -13 0 -22 3 -19 7 4 8 30 6 38 -2z m675 -6 c-12
-15 -12 -16 6 -9 15 5 17 4 8 -5 -17 -17 -37 -1 -22 17 6 8 14 14 16 14 3 0
-1 -8 -8 -17z m-37 -23 l-9 -24 -5 22 c-4 12 -2 20 3 16 5 -3 9 0 9 7 0 7 2
10 5 7 3 -3 2 -16 -3 -28z m-61 13 c-11 -5 -11 -7 0 -14 11 -7 10 -9 -3 -9
-18 0 -23 11 -11 23 3 4 11 7 17 6 6 0 5 -3 -3 -6z m-1874 -48 c0 -8 -4 -12
-9 -9 -5 3 -6 10 -3 15 9 13 12 11 12 -6z m638 -25 c3 -6 -1 -7 -9 -4 -18 7
-21 14 -7 14 6 0 13 -4 16 -10z m-416 -54 c9 -11 9 -16 -1 -22 -7 -4 -10 -4
-6 1 4 4 3 14 -3 22 -6 7 -9 13 -6 13 2 0 10 -6 16 -14z m-24 -8 c4 -3 2 -9
-3 -12 -5 -3 -15 1 -21 8 -10 11 -9 14 3 12 9 -1 18 -5 21 -8z m2821 -313 c1
-8 -1 -17 -5 -19 -4 -3 -7 6 -7 19 0 25 8 25 12 0z m-2784 -234 c-4 -10 -1
-13 9 -9 11 4 15 0 15 -16 l-1 -21 910 0 c750 0 910 2 907 13 -1 8 2 11 8 7 6
-3 8 -11 5 -16 -4 -5 87 -9 231 -9 224 0 236 1 223 18 -13 16 0 8 41 -27 3 -2
-3 -1 -12 2 -12 4 -18 0 -20 -16 l-3 -22 -1157 -3 -1158 -2 -25 40 c-36 57
-33 81 10 78 16 -2 21 -7 17 -17z m-83 -55 c0 -7 -2 -6 -6 2 -2 6 -8 10 -12 8
-4 -3 -8 1 -8 9 0 11 4 12 14 4 7 -6 13 -17 12 -23z m65 -57 c-3 -5 -10 -7
-15 -3 -5 3 -7 10 -3 15 3 5 10 7 15 3 5 -3 7 -10 3 -15z m916 -9 c0 -5 -4
-10 -10 -10 -5 0 -10 5 -10 10 0 6 5 10 10 10 6 0 10 -4 10 -10z m-970 -23 c0
-2 -10 -12 -22 -23 l-23 -19 19 23 c18 21 26 27 26 19z m2560 -612 c0 -7 -30
-13 -34 -7 -3 4 4 9 15 9 10 1 19 0 19 -2z m-1325 -383 c-3 -3 -11 0 -18 7 -9
10 -8 11 6 5 10 -3 15 -9 12 -12z m1370 -42 c3 -5 1 -10 -4 -10 -6 0 -11 5
-11 10 0 6 2 10 4 10 3 0 8 -4 11 -10z m12 -55 c0 -8 -4 -12 -9 -9 -5 3 -6 10
-3 15 9 13 12 11 12 -6z m-7 -535 c0 -5 -5 -10 -11 -10 -5 0 -7 5 -4 10 3 6 8
10 11 10 2 0 4 -4 4 -10z"/>
<path d="M11683 17948 c-28 -52 -25 -208 5 -270 96 -195 349 -244 513 -100 20
17 51 60 70 94 29 55 33 72 34 138 0 50 -6 91 -18 123 l-19 47 -284 0 -283 0
-18 -32z"/>
<path d="M11340 17943 c-100 -36 -177 -73 -246 -118 -82 -54 -195 -156 -230
-210 -18 -27 -18 -28 7 -48 92 -76 233 -94 341 -45 66 31 128 91 160 156 27
55 36 166 19 230 -11 41 -20 46 -51 35z"/>
<path d="M11140 16845 c-62 -18 -90 -39 -73 -56 7 -7 25 -5 63 7 41 13 72 16
151 11 84 -5 99 -4 99 9 0 35 -151 53 -240 29z"/>
<path d="M11811 16844 c-64 -17 -71 -21 -71 -39 0 -22 14 -25 56 -10 51 18
161 18 248 0 71 -15 86 -13 86 10 0 16 -41 29 -140 44 -83 14 -113 13 -179 -5z"/>
<path d="M11202 16585 c-63 -53 -27 -150 54 -148 73 2 109 83 62 137 -35 40
-78 43 -116 11z"/>
<path d="M11860 16597 c-81 -41 -50 -160 41 -160 82 0 111 121 38 158 -34 18
-47 18 -79 2z"/>
<path d="M2847 15228 c-2 -7 102 -573 233 -1258 130 -685 250 -1312 265 -1394
16 -81 35 -154 42 -162 12 -12 125 -14 692 -14 l677 0 -23 108 c-13 59 -32
150 -43 202 -29 138 -85 406 -115 545 -14 66 -32 155 -41 198 -8 43 -19 89
-24 103 l-9 24 -283 2 -283 3 0 25 0 25 278 3 c212 2 277 5 277 15 0 6 -7 39
-15 72 -20 82 -18 114 5 153 40 66 -58 62 1555 62 1165 0 1465 3 1465 13 0 40
-239 1259 -250 1272 -11 13 -247 15 -2205 15 -1745 0 -2194 -3 -2198 -12z
m271 -220 c7 -7 12 -20 12 -30 0 -15 -9 -18 -54 -18 -56 0 -83 17 -72 45 7 19
96 21 114 3z m77 -218 c0 -24 -3 -25 -66 -28 -70 -3 -98 11 -85 43 5 13 20 15
78 13 70 -3 73 -4 73 -28z m8 -181 c20 -33 1 -49 -57 -49 -46 0 -57 4 -66 21
-9 15 -8 24 1 35 17 21 108 15 122 -7z m462 -9 c3 -11 3 -24 0 -30 -7 -11
-342 -14 -369 -4 -9 3 -16 17 -16 30 l0 24 189 0 c181 0 190 -1 196 -20z
m1450 -10 l0 -25 -179 -3 c-186 -3 -206 1 -206 39 0 19 9 19 193 17 l192 -3 0
-25z m350 0 l0 -25 -124 -3 c-129 -3 -151 3 -151 40 0 17 8 18 138 16 l137 -3
0 -25z m459 15 c3 -8 3 -22 0 -30 -9 -23 -355 -22 -378 1 -40 40 -23 44 185
44 157 0 188 -2 193 -15z m1300 0 c14 -38 -3 -45 -104 -45 -115 0 -130 4 -130
36 0 24 0 24 114 24 92 0 115 -3 120 -15z m-3959 -191 c28 -28 12 -39 -63 -42
-75 -3 -92 6 -78 43 8 22 119 21 141 -1z m3 -196 c7 -7 12 -20 12 -30 0 -15
-9 -18 -54 -18 -56 0 -83 17 -72 45 7 19 96 21 114 3z m1520 0 c7 -7 12 -20
12 -30 0 -15 -9 -18 -59 -18 -51 0 -61 3 -66 20 -3 11 -3 24 0 30 9 14 98 13
113 -2z m752 -8 c17 -32 4 -40 -66 -40 -48 0 -66 4 -70 15 -13 34 3 45 65 45
50 0 62 -3 71 -20z m1510 5 c24 -29 4 -45 -55 -45 -57 0 -74 12 -61 45 8 21
99 21 116 0z m-3749 -185 c11 -6 19 -21 19 -36 0 -24 -2 -25 -62 -22 -65 3
-79 15 -64 54 6 17 77 19 107 4z m1467 -32 c3 -28 2 -28 -51 -28 -58 0 -84 16
-73 45 4 13 18 15 63 13 55 -3 58 -4 61 -30z m2257 12 c10 -31 -2 -40 -54 -40
-51 0 -78 18 -67 45 4 11 20 15 60 15 46 0 56 -3 61 -20z m-3640 -210 c0 -24
-3 -25 -63 -28 -68 -3 -92 7 -92 40 0 17 7 19 78 16 75 -3 77 -4 77 -28z m5
-175 c6 -8 10 -22 8 -32 -3 -15 -13 -18 -62 -18 -62 0 -86 16 -73 49 8 21 109
23 127 1z m28 -197 c7 -7 12 -20 12 -30 0 -15 -9 -18 -54 -18 -56 0 -83 17
-72 45 7 19 96 21 114 3z m80 -220 l3 -28 -69 0 c-73 0 -100 14 -88 45 5 13
20 15 78 13 71 -3 73 -4 76 -30z m-3 -158 c0 -23 -4 -25 -51 -28 -54 -3 -82
14 -70 43 4 13 18 15 63 13 54 -3 58 -5 58 -28z m70 -200 c0 -24 -3 -25 -63
-28 -68 -3 -92 7 -92 40 0 17 7 19 78 16 75 -3 77 -4 77 -28z m5 -175 c22 -27
8 -50 -34 -53 -22 -2 -49 -1 -62 2 -23 6 -40 38 -29 56 10 16 111 12 125 -5z
m455 1 c11 -8 16 -19 12 -30 -6 -14 -29 -16 -197 -16 l-190 0 0 23 c0 13 3 27
7 30 3 4 83 7 178 7 128 0 176 -3 190 -14z"/>
<path d="M4565 12198 c-35 -100 -485 -1408 -485 -1412 0 -4 16 -6 35 -6 19 0
35 2 35 4 0 2 110 323 245 712 135 390 245 710 245 711 0 10 -71 1 -75 -9z"/>
<path d="M10714 3668 c-5 -7 -11 -74 -14 -149 -3 -94 -9 -141 -19 -152 -11
-14 -33 -17 -124 -17 l-110 0 7 -57 c20 -175 156 -306 298 -290 241 29 334
409 147 596 -61 60 -166 100 -185 69z"/>
<path d="M13510 3671 c-152 -47 -243 -230 -205 -412 41 -200 206 -307 360
-235 91 42 162 152 172 267 l6 59 -106 0 c-139 0 -137 -2 -137 143 0 62 -5
129 -11 150 -11 39 -25 44 -79 28z"/>
<path d="M10560 1535 c-10 -12 -10 -19 -2 -27 22 -22 12 -37 -29 -48 -43 -12
-50 -37 -8 -32 13 2 57 6 97 9 50 4 72 9 72 19 0 8 -15 14 -42 16 -42 3 -43 4
-43 38 0 39 -23 52 -45 25z"/>
<path d="M10776 1412 c-3 -5 11 -24 31 -43 19 -19 43 -46 52 -61 11 -18 21
-24 30 -19 10 7 10 14 -3 39 -20 39 -20 39 4 45 24 6 27 35 4 44 -11 4 -23 -2
-33 -16 l-17 -22 -19 20 c-19 22 -40 27 -49 13z"/>
<path d="M11134 1397 c-21 -18 -29 -36 -33 -73 -5 -44 -9 -49 -33 -52 -25 -3
-28 -8 -28 -38 0 -31 2 -34 30 -34 l30 0 0 -105 0 -105 35 0 35 0 0 105 0 105
45 0 c45 0 45 0 45 34 0 34 -1 35 -42 38 -41 3 -43 5 -41 32 3 36 19 48 56 41
27 -5 28 -3 25 33 -3 36 -4 37 -49 40 -38 2 -52 -2 -75 -21z"/>
<path d="M12440 1400 c-23 -23 -24 -33 -10 -61 12 -22 59 -26 78 -7 19 19 15
66 -7 78 -28 14 -38 13 -61 -10z"/>
<path d="M10511 1384 c-84 -42 -137 -131 -129 -219 2 -33 8 -42 33 -54 39 -19
220 -20 295 -2 64 16 149 56 156 74 8 21 -22 103 -51 140 -64 85 -200 112
-304 61z m74 -109 c28 -27 32 -61 10 -92 -49 -70 -160 0 -120 77 24 47 72 54
110 15z m173 9 c26 -18 28 -50 5 -76 -38 -43 -105 0 -84 55 8 22 18 29 51 36
3 0 16 -6 28 -15z"/>
<path d="M12560 1200 l0 -210 40 0 40 0 0 52 0 52 53 -52 c49 -48 56 -52 101
-52 l48 0 -66 74 -66 74 67 66 68 66 -49 0 c-43 0 -53 -5 -100 -46 l-51 -47
-3 117 -3 116 -39 0 -40 0 0 -210z"/>
<path d="M7380 1310 c0 -38 -3 -70 -7 -70 -3 0 -14 7 -23 15 -46 41 -139 22
-173 -34 -24 -42 -23 -147 2 -185 38 -58 98 -71 164 -36 31 17 37 17 37 5 0
-8 9 -15 20 -15 19 0 20 7 20 195 0 188 -1 195 -20 195 -18 0 -20 -7 -20 -70z
m-57 -79 c45 -17 57 -38 57 -102 0 -45 -5 -64 -20 -79 -50 -50 -130 -29 -151
40 -16 54 1 114 39 134 32 18 43 19 75 7z"/>
<path d="M9330 1310 l0 -70 -32 20 c-65 39 -137 16 -169 -53 -52 -115 16 -238
123 -224 22 3 48 13 59 23 17 16 19 16 19 1 0 -11 8 -17 25 -17 l25 0 0 195 0
195 -25 0 c-24 0 -25 -2 -25 -70z m-18 -97 c28 -25 26 -143 -3 -169 -29 -26
-93 -25 -120 3 -46 45 -31 160 24 183 29 12 76 4 99 -17z"/>
<path d="M9590 1185 c0 -188 1 -195 20 -195 11 0 20 7 20 15 0 11 7 10 35 -7
49 -28 107 -20 149 21 26 26 31 39 34 94 6 97 -31 154 -107 164 -30 4 -49 0
-76 -15 l-35 -21 0 69 c0 63 -2 70 -20 70 -19 0 -20 -7 -20 -195z m182 26 c28
-25 32 -34 32 -81 0 -47 -4 -56 -32 -81 -38 -34 -65 -36 -109 -9 -32 19 -33
21 -33 90 0 69 1 71 33 90 44 27 71 25 109 -9z"/>
<path d="M10382 1356 c-20 -27 -42 -34 -42 -15 0 6 -10 9 -22 7 -30 -4 -29
-30 0 -43 18 -8 22 -15 17 -35 -11 -42 -11 -44 8 -48 11 -2 17 3 17 14 0 10
14 42 31 72 33 60 27 94 -9 48z"/>
<path d="M8064 1355 c-8 -21 2 -45 19 -45 20 0 40 27 33 45 -7 19 -45 20 -52
0z"/>
<path d="M7551 1262 c-97 -52 -95 -219 3 -266 19 -9 48 -16 65 -16 41 0 111
29 111 45 0 22 -16 26 -46 10 -47 -24 -91 -19 -125 14 -16 16 -29 39 -29 50 0
20 5 21 110 21 l110 0 0 33 c0 96 -111 156 -199 109z m123 -44 c13 -13 27 -33
31 -45 6 -23 5 -23 -88 -23 -90 0 -95 1 -90 20 17 64 99 90 147 48z"/>
<path d="M7844 1270 c-28 -11 -54 -48 -54 -77 0 -35 32 -60 100 -79 69 -19 87
-40 64 -72 -19 -28 -77 -29 -121 -3 -27 17 -32 18 -37 5 -10 -27 -7 -32 39
-50 88 -33 175 4 175 77 0 38 -28 65 -82 79 -24 6 -53 15 -65 20 -25 10 -30
39 -11 58 17 17 79 15 106 -4 23 -16 42 -12 42 10 0 33 -105 57 -156 36z"/>
<path d="M8245 1270 c-46 -18 -69 -58 -73 -124 -5 -71 12 -115 54 -142 35 -24
99 -21 135 5 l29 22 0 -31 c0 -44 -47 -90 -92 -90 -18 0 -48 9 -65 20 -32 19
-33 19 -43 -1 -10 -17 -6 -22 32 -39 70 -32 151 -20 188 27 18 23 20 40 20
189 0 157 -1 164 -20 164 -11 0 -20 -7 -20 -15 0 -12 -6 -11 -32 5 -34 21 -78
25 -113 10z m113 -50 c31 -19 32 -22 32 -83 0 -54 -4 -67 -24 -86 -28 -27 -86
-32 -112 -10 -51 42 -53 132 -2 174 36 30 62 31 106 5z"/>
<path d="M8587 1260 c-31 -17 -37 -17 -37 -5 0 8 -9 15 -20 15 -19 0 -20 -7
-20 -140 0 -133 1 -140 20 -140 19 0 20 7 20 105 l0 105 33 20 c38 24 66 25
93 6 16 -12 19 -29 22 -125 3 -101 5 -111 23 -111 18 0 19 9 19 120 0 115 -1
122 -25 145 -30 31 -76 33 -128 5z"/>
<path d="M8871 1262 c-97 -52 -95 -219 3 -266 19 -9 48 -16 65 -16 41 0 111
29 111 45 0 22 -16 26 -46 10 -47 -24 -91 -19 -125 14 -16 16 -29 39 -29 50 0
20 5 21 110 21 l110 0 0 33 c0 96 -111 156 -199 109z m123 -44 c13 -13 27 -33
31 -45 6 -23 5 -23 -88 -23 -90 0 -95 1 -90 20 17 64 99 90 147 48z"/>
<path d="M11392 1264 c-12 -8 -22 -10 -22 -5 0 6 -18 11 -40 11 l-40 0 0 -140
0 -140 40 0 40 0 0 86 c0 47 5 94 10 104 6 11 26 22 45 26 35 6 71 46 60 64
-10 15 -68 12 -93 -6z"/>
<path d="M11543 1260 c-43 -26 -67 -74 -67 -136 0 -59 19 -95 67 -124 39 -24
113 -26 162 -6 39 17 44 35 16 60 -16 14 -23 15 -41 6 -32 -17 -78 -15 -100 5
-11 10 -20 22 -20 27 0 4 45 8 100 8 l100 0 0 33 c-1 53 -33 111 -73 130 -47
23 -105 21 -144 -3z m125 -77 l14 -23 -61 0 c-63 0 -72 7 -45 35 23 22 73 16
92 -12z"/>
<path d="M11854 1264 c-67 -33 -93 -137 -54 -213 23 -46 70 -71 134 -71 42 0
116 25 116 40 0 4 -11 17 -25 30 -20 19 -27 21 -39 10 -27 -21 -88 -15 -109
12 l-19 23 101 3 101 3 0 42 c0 106 -108 169 -206 121z m120 -76 c15 -25 5
-29 -58 -26 l-57 3 17 23 c12 18 24 22 51 20 20 -2 41 -10 47 -20z"/>
<path d="M12198 1265 c-16 -9 -28 -11 -28 -5 0 5 -16 10 -35 10 l-35 0 0 -200
0 -200 40 0 40 0 0 66 c0 59 2 65 18 58 9 -4 38 -9 65 -12 44 -4 50 -1 86 35
65 64 67 154 7 220 -27 30 -40 36 -82 39 -32 3 -58 -1 -76 -11z m102 -81 c24
-23 19 -93 -9 -115 -66 -54 -147 22 -107 100 9 16 24 32 33 34 26 7 66 -2 83
-19z"/>
<path d="M8070 1130 c0 -133 1 -140 20 -140 19 0 20 7 20 140 0 133 -1 140
-20 140 -19 0 -20 -7 -20 -140z"/>
<path d="M9870 1266 c0 -2 25 -63 55 -136 30 -73 55 -140 55 -150 0 -28 -40
-72 -61 -67 -22 6 -34 -32 -13 -40 18 -7 54 2 77 19 13 10 167 355 167 374 0
2 -11 4 -24 4 -21 0 -29 -11 -56 -77 -18 -43 -39 -94 -47 -113 l-15 -35 -45
113 c-40 99 -48 112 -69 112 -13 0 -24 -2 -24 -4z"/>
<path d="M12440 1130 l0 -140 35 0 35 0 0 140 0 140 -35 0 -35 0 0 -140z"/>
<path d="M10846 1131 c-11 -17 -127 -51 -212 -61 -54 -7 -105 -7 -150 -1 -37
6 -71 8 -74 5 -10 -11 89 -90 127 -102 94 -28 189 -9 251 51 34 32 78 105 69
114 -3 2 -8 0 -11 -6z"/>
</g>
</svg>
