<?xml version="1.0" standalone="no"?>
<!DOCTYPE svg PUBLIC "-//W3C//DTD SVG 20010904//EN"
 "http://www.w3.org/TR/2001/REC-SVG-20010904/DTD/svg10.dtd">
<svg version="1.0" xmlns="http://www.w3.org/2000/svg"
 width="2000.000000pt" height="2000.000000pt" viewBox="0 0 2000.000000 2000.000000"
 preserveAspectRatio="xMidYMid meet">

<g transform="translate(0.000000,2000.000000) scale(0.100000,-0.100000)"
fill="#000000" stroke="none">
<path d="M3284 13901 c-68 -41 -64 -3 -64 -661 1 -643 -1 -623 56 -661 28 -19
73 -19 2369 -19 2329 0 2340 0 2373 20 64 39 63 29 60 673 -3 542 -4 584 -21
609 -43 63 146 58 -2414 58 -2274 0 -2329 -1 -2359 -19z m847 -432 c101 -44
179 -163 179 -275 0 -97 -61 -202 -148 -256 -78 -48 -206 -52 -292 -8 -59 30
-128 113 -146 177 -72 248 171 463 407 362z m3449 -128 c35 -10 -658 -21
-1335 -21 -711 0 -1416 11 -1390 21 25 9 2691 9 2725 0z m-1115 -271 c7 -11
-25 -11 -785 -12 -734 0 -807 1 -790 12 21 13 1567 13 1575 0z"/>
<path d="M4125 13254 c-22 -20 -66 -61 -97 -92 l-58 -56 -51 49 c-28 28 -47
41 -41 30 6 -11 29 -38 51 -60 l41 -39 103 102 c102 102 126 133 52 66z"/>
<path d="M3294 12350 c-11 -4 -33 -22 -47 -40 l-27 -32 0 -595 c0 -654 -2
-630 60 -667 26 -15 220 -16 2367 -16 2327 0 2338 0 2371 20 64 39 63 29 60
673 -3 558 -4 583 -23 611 -40 60 122 56 -2412 55 -1280 0 -2337 -4 -2349 -9z
m839 -443 c66 -30 116 -79 148 -143 36 -72 34 -189 -3 -260 -54 -102 -154
-164 -268 -164 -87 0 -147 25 -210 89 -235 236 31 616 333 478z m3462 -127 c4
-6 -44 -10 -137 -10 -79 0 -397 -3 -708 -6 -637 -8 -1900 4 -1900 17 0 13
2737 12 2745 -1z m-1125 -270 c0 -6 -62 -10 -157 -10 -87 0 -248 -3 -358 -6
-251 -8 -1075 5 -1075 17 0 5 335 9 795 9 510 0 795 -4 795 -10z"/>
<path d="M4065 11638 l-96 -91 -56 54 c-35 34 -48 43 -35 24 11 -16 37 -46 56
-65 l36 -34 103 102 c56 56 99 102 95 102 -4 0 -50 -41 -103 -92z"/>
<path d="M10302 12334 c-29 -7 -67 -21 -85 -30 -56 -29 -199 -127 -204 -142
-3 -7 -39 -30 -80 -50 -88 -43 -137 -94 -158 -166 -19 -62 -19 -72 2 -175 l16
-85 -79 -73 c-43 -40 -105 -87 -137 -105 -150 -81 -228 -258 -182 -413 22 -77
76 -157 131 -197 24 -17 44 -37 44 -43 0 -6 -24 -47 -54 -91 -77 -116 -86
-136 -86 -200 0 -94 66 -198 165 -261 25 -15 45 -32 45 -36 0 -7 -287 -329
-490 -550 l-46 -50 -54 176 -54 177 -458 0 -458 0 0 335 c0 372 -2 388 -62
425 -33 20 -40 20 -2381 17 l-2349 -2 -34 -37 -34 -38 0 -600 0 -600 34 -38
34 -37 2084 -3 2084 -2 197 -578 c109 -317 197 -580 197 -584 0 -5 -862 -8
-1915 -8 l-1915 0 0 -150 0 -150 295 0 295 0 0 -32 c0 -65 -301 -5573 -305
-5585 -3 -10 -124 -13 -557 -13 l-553 0 56 24 c120 49 190 114 242 224 l32 67
3 383 3 382 -179 0 -179 0 -6 68 c-4 37 -7 87 -7 112 l0 45 77 13 c119 18 211
68 308 166 89 89 134 166 160 277 29 124 17 219 -65 509 -67 236 -66 315 6
565 57 196 56 308 -1 430 -14 30 -63 110 -109 178 -169 250 -170 253 -171 637
0 283 -2 311 -23 395 -51 202 -165 363 -306 429 -87 42 -153 56 -254 56 -129
0 -214 -55 -280 -179 -75 -140 -80 -270 -21 -568 70 -357 60 -446 -87 -771
-107 -236 -127 -308 -127 -452 0 -83 5 -135 20 -187 11 -40 18 -73 16 -73 -1
0 -31 23 -65 51 -90 72 -178 129 -298 192 -93 49 -263 117 -292 117 -17 0 -3
-251 22 -370 50 -247 186 -568 331 -786 105 -156 305 -355 459 -457 135 -89
297 -168 354 -172 l40 -3 52 -103 c29 -57 53 -107 53 -111 1 -5 -71 -8 -159
-8 l-161 0 5 -72 c9 -121 15 -236 21 -368 13 -266 21 -326 53 -395 42 -88 109
-157 195 -200 38 -19 77 -36 86 -37 9 -2 -319 -5 -729 -8 -410 -3 3071 -5
7735 -5 4664 0 7684 2 6710 5 l-1770 5 -130 2810 -130 2810 217 3 218 2 0 150
0 150 -1014 0 -1014 0 -5 188 c-5 212 -21 290 -83 421 -29 61 -55 94 -129 167
-78 78 -106 99 -186 137 -149 72 -288 98 -489 91 l-96 -3 -63 322 c-36 177
-72 346 -82 375 -58 170 -173 296 -357 392 l-63 33 19 21 c33 36 52 83 52 129
0 28 6 49 16 58 28 23 56 91 61 149 8 83 -19 139 -89 183 -29 19 -61 43 -71
54 -17 19 -16 22 5 69 25 56 28 123 11 275 -19 168 -80 255 -278 396 -55 39
-108 79 -117 89 -9 11 -31 60 -48 109 -85 240 -200 360 -395 410 -78 20 -328
20 -403 -1z m-343 -281 c-10 -32 -28 -96 -40 -141 -15 -56 -35 -104 -63 -145
l-40 -61 -14 44 c-8 25 -15 77 -15 115 -2 101 37 166 133 224 54 32 59 28 39
-36z m549 -290 c48 -24 69 -28 137 -28 57 0 89 5 112 18 l31 17 17 -51 c22
-64 16 -123 -19 -202 -23 -51 -31 -96 -27 -149 0 -9 27 -54 58 -100 43 -63 57
-93 61 -129 5 -55 -5 -75 -87 -184 -34 -44 -70 -104 -81 -133 -28 -73 -35
-183 -17 -249 l14 -53 -181 0 c-100 0 -186 4 -193 8 -7 4 -12 47 -14 117 -4
186 -3 181 -63 201 -104 35 -181 106 -213 198 -16 45 -18 89 -17 386 l1 335
31 56 c18 31 32 63 32 72 0 23 5 22 48 -13 46 -36 115 -67 172 -76 35 -6 42
-4 38 7 -4 8 -18 41 -33 73 l-26 59 81 -76 c45 -42 106 -88 138 -104z m903
-185 c51 -54 93 -133 104 -195 4 -24 5 -43 2 -43 -2 0 -17 19 -32 42 -16 23
-81 94 -145 158 -100 98 -180 202 -180 233 0 13 202 -144 251 -195z m-1864
-155 c-44 -80 -43 -165 1 -312 31 -102 44 -231 23 -231 -19 0 -113 107 -138
159 -24 48 -28 68 -28 141 0 71 4 94 27 143 24 52 117 157 138 157 4 0 -6 -26
-23 -57z m2023 -495 c41 -27 71 -56 82 -78 25 -49 23 -130 -3 -183 -37 -72
-36 -72 -94 14 -74 108 -85 131 -85 182 0 45 17 107 29 107 4 0 36 -19 71 -42z
m-7438 -576 c58 -26 124 -91 151 -151 33 -71 31 -189 -5 -257 -141 -268 -541
-188 -566 112 -18 224 214 388 420 296z m5993 3 c0 -6 -34 -11 -75 -13 -70 -3
-88 8 -35 21 33 8 110 3 110 -8z m509 -123 c22 -20 53 -47 69 -59 24 -18 36
-43 22 -43 -27 0 -145 106 -145 130 0 17 12 11 54 -28z m506 20 c0 -20 -105
-100 -117 -89 -8 9 15 35 61 69 40 29 56 34 56 20z m376 -44 c-8 -59 -36 -130
-43 -110 -5 12 15 139 24 155 2 4 9 7 15 7 7 0 8 -17 4 -52z m-4363 23 c279
-1 447 -5 447 -11 0 -9 -405 -14 -1370 -15 -856 0 -1380 5 -1380 15 0 10 804
17 1480 13 206 -1 576 -2 823 -2z m3174 -108 c-29 -105 -49 -163 -58 -163 -15
0 -2 84 21 138 18 41 46 60 37 25z m-532 -100 c49 -41 63 -63 39 -63 -18 0
-94 72 -94 89 0 17 8 14 55 -26z m2065 -66 c-12 -31 -30 -66 -41 -79 l-20 -23
5 35 c4 19 18 59 32 88 35 71 52 55 24 -21z m-816 19 c95 -68 112 -100 33 -60
-51 26 -127 104 -101 104 4 0 34 -20 68 -44z m-4575 -22 c2 -2 2 -7 -1 -10
-10 -9 -1556 -7 -1570 3 -7 4 99 10 242 13 270 6 1322 1 1329 -6z m4091 -102
c0 -16 -93 -92 -112 -92 -20 0 -4 23 43 60 50 39 69 48 69 32z m923 -82 c59
-55 74 -90 25 -58 -39 26 -128 113 -128 126 0 20 33 -2 103 -68z m-594 -67
c-28 -30 -98 -83 -111 -83 -21 0 -3 23 59 76 39 33 69 52 71 45 2 -7 -6 -24
-19 -38z m-724 -48 c21 -42 35 -78 32 -82 -19 -19 -77 77 -77 127 0 16 2 30 4
30 2 0 21 -34 41 -75z m-717 -77 c-4 -66 -31 -148 -45 -135 -2 3 2 47 11 98 9
51 16 96 16 101 0 4 5 8 11 8 8 0 10 -22 7 -72z m356 -40 c-9 -28 -21 -63 -27
-77 -11 -26 -11 -26 -15 11 -2 23 5 56 17 83 27 62 44 50 25 -17z m2081 -46
c-39 -72 -61 -99 -70 -90 -7 7 47 118 79 163 37 53 31 1 -9 -73z m-387 -64
c46 -62 66 -98 54 -98 -18 0 -112 116 -112 139 0 24 21 9 58 -41z m-857 -151
c40 -82 46 -107 30 -107 -13 0 -91 157 -91 182 0 34 20 9 61 -75z m533 46
c-98 -151 -129 -194 -132 -180 -5 23 44 110 91 163 43 49 69 59 41 17z m-1310
-90 c-15 -47 -27 -117 -31 -174 -5 -89 -4 -100 20 -152 28 -61 98 -137 145
-156 28 -12 30 -17 36 -79 16 -156 14 -152 55 -152 173 0 885 50 1128 80 175
21 219 33 228 60 11 35 -45 446 -70 518 -4 10 72 12 372 10 l377 -3 18 -100
c10 -55 32 -197 48 -315 17 -118 37 -253 45 -300 8 -47 17 -111 21 -142 l6
-58 -805 0 -805 0 -6 25 c-6 25 -8 25 -114 25 -59 1 -159 3 -222 5 -63 3 -268
10 -455 16 -187 5 -340 11 -341 12 -4 4 -157 503 -158 513 -1 10 511 442 525
443 4 1 -4 -34 -17 -76z m-1433 34 c83 -55 92 -188 17 -241 -97 -69 -215 101
-148 212 33 54 78 64 131 29z m939 -20 c50 -23 60 -31 43 -34 -26 -5 -155 47
-161 65 -6 18 38 7 118 -31z m850 33 c0 -12 -112 -119 -151 -144 -52 -33 -46
-5 11 46 51 47 129 108 137 108 1 0 3 -4 3 -10z m600 -336 c0 -4 -24 -47 -52
-98 -40 -67 -54 -85 -56 -69 -4 24 27 91 65 141 22 29 43 42 43 26z m-533 -31
c49 -38 118 -126 103 -131 -12 -4 -160 135 -160 150 0 15 22 8 57 -19z m760
-82 c89 -71 128 -109 121 -116 -10 -11 -75 34 -144 99 -69 65 -52 77 23 17z
m1093 -866 c0 -16 -89 -38 -181 -43 -123 -8 -1342 2 -1685 13 l-231 8 -18 -92
c-9 -50 -21 -91 -26 -91 -4 0 -69 9 -144 20 -508 75 -810 94 -883 56 -65 -34
-175 -210 -357 -571 -252 -501 -667 -1440 -1060 -2400 l-82 -200 126 -54 c69
-30 127 -55 129 -56 1 -1 0 -9 -3 -17 -4 -9 -15 -13 -34 -10 -21 3 -33 -2 -49
-23 l-21 -26 -38 35 c-32 30 -36 37 -23 47 12 9 12 10 1 7 -28 -8 -23 -29 16
-64 26 -25 32 -34 18 -31 -11 3 -49 11 -85 17 -36 6 -76 16 -89 21 -19 8 -22
7 -18 -5 11 -27 19 -86 13 -86 -4 0 -47 21 -97 46 -50 25 -93 43 -96 41 -7 -7
537 -274 746 -367 101 -45 185 -79 187 -77 2 2 -28 18 -66 35 -65 29 -70 33
-60 51 15 28 87 69 136 76 36 6 79 0 126 -20 13 -5 22 3 38 34 11 23 24 41 29
41 5 0 31 -9 57 -20 26 -11 48 -19 49 -18 2 2 113 271 248 598 135 327 254
615 266 640 l20 45 2 -62 c1 -35 3 -75 4 -90 1 -16 6 -109 10 -208 3 -99 8
-198 10 -220 2 -22 6 -94 10 -160 3 -66 8 -151 10 -190 5 -69 20 -313 30 -490
3 -49 8 -110 10 -135 2 -25 7 -97 10 -160 3 -63 8 -126 10 -140 2 -14 7 -79
10 -145 3 -66 8 -136 10 -155 2 -19 7 -75 10 -125 7 -112 14 -205 20 -270 17
-191 16 -238 -13 -370 l-28 -130 -41 -10 -41 -10 29 -33 c16 -18 29 -37 29
-42 0 -5 -46 -11 -102 -13 -75 -2 -58 -3 62 -5 188 -2 690 15 825 28 l90 9
-102 -4 c-101 -3 -103 -3 -103 19 0 34 53 110 94 135 20 13 57 26 84 29 38 6
47 11 47 27 0 17 8 20 53 23 l53 3 -5 42 c-3 23 -8 258 -11 522 -3 264 -8 550
-10 635 -2 85 -7 328 -11 540 -4 212 -9 545 -13 742 -3 196 -3 354 2 351 4 -2
7 16 7 42 l0 46 273 -1 c150 -1 279 -5 286 -9 11 -7 12 -284 6 -1600 l-8
-1591 -646 0 c-355 0 -1734 -2 -3063 -4 l-2418 -5 0 25 c0 14 68 1266 150
2783 83 1516 150 2772 150 2789 l0 32 3680 0 c2024 0 3680 -2 3680 -5z m2502
-2725 c70 -1499 127 -2765 127 -2813 l1 -88 -1267 7 c-698 4 -1270 8 -1272 10
-5 4 7 -65 -297 1658 -151 857 -273 1560 -271 1562 2 2 75 11 162 19 443 43
718 113 865 221 59 44 98 96 124 171 25 71 84 379 111 578 22 162 34 265 70
585 2 25 9 92 15 150 6 58 13 125 15 150 3 25 12 124 20 220 8 96 18 203 21
238 l6 62 721 -2 722 -3 127 -2725z m-4178 2602 c-5 -4 -36 -27 -67 -51 -64
-48 -87 -48 -41 0 29 31 104 72 113 63 3 -3 1 -8 -5 -12z m460 -64 c14 -29 28
-71 31 -93 7 -36 6 -38 -8 -25 -30 29 -73 170 -52 170 2 0 15 -24 29 -52z
m508 27 c-13 -24 -103 -115 -114 -115 -20 0 -4 24 53 80 58 58 82 71 61 35z
m346 -205 c17 -11 32 -24 32 -30 0 -13 -1 -13 -44 5 -20 9 -58 16 -84 17 -55
2 -69 7 -51 19 26 16 112 10 147 -11z m-2069 -836 c2 -1 -52 -30 -119 -64 -67
-34 -124 -59 -126 -57 -3 2 12 45 32 95 l37 90 86 -30 c47 -17 88 -32 90 -34z
m2008 -2774 c182 -861 335 -1582 338 -1602 l7 -38 -651 0 -651 0 0 88 c0 48
16 757 35 1577 19 820 35 1500 35 1512 0 22 3 23 148 25 81 2 205 3 277 3
l130 0 332 -1565z m-4021 508 c-3 -13 -5 -26 -5 -30 -1 -5 -10 -8 -21 -8 -29
0 -38 30 -15 46 29 21 45 17 41 -8z m-4719 -818 c28 -10 76 -21 106 -25 l55
-7 6 -87 c4 -47 9 -99 12 -114 l6 -28 -87 3 -86 3 -60 116 c-53 102 -59 118
-49 143 8 21 15 26 28 21 9 -4 40 -15 69 -25z m6333 -1135 c0 -8 -4 -15 -10
-15 -5 0 -7 7 -4 15 4 8 8 15 10 15 2 0 4 -7 4 -15z m433 -152 c-7 -2 -21 -2
-30 0 -10 3 -4 5 12 5 17 0 24 -2 18 -5z m-265 -10 c-10 -2 -28 -2 -40 0 -13
2 -5 4 17 4 22 1 32 -1 23 -4z"/>
<path d="M10083 11668 c-32 -15 -29 -30 5 -22 15 4 28 8 30 9 2 2 19 -1 38 -5
37 -9 46 3 15 20 -25 13 -59 12 -88 -2z"/>
<path d="M10484 11656 c-26 -19 -13 -29 20 -16 15 5 46 7 69 4 39 -5 41 -4 23
10 -25 20 -86 21 -112 2z"/>
<path d="M10280 11485 c-33 -99 -49 -160 -43 -166 14 -14 52 -19 58 -8 4 5 -5
9 -19 9 -31 0 -32 13 -7 77 26 68 74 234 68 239 -2 2 -28 -66 -57 -151z"/>
<path d="M10084 11596 c-11 -28 1 -51 28 -54 31 -4 48 29 28 53 -16 19 -49 19
-56 1z"/>
<path d="M10490 11595 c-18 -22 -1 -50 31 -50 20 0 24 5 24 30 0 23 -5 31 -21
33 -11 2 -27 -4 -34 -13z"/>
<path d="M10430 11296 c0 -22 -39 -65 -78 -86 l-37 -19 33 -1 c45 0 92 46 92
89 0 17 -2 31 -5 31 -3 0 -5 -6 -5 -14z"/>
<path d="M4065 10078 l-96 -91 -56 54 c-35 34 -48 43 -35 24 11 -16 37 -46 56
-65 l36 -34 103 102 c56 56 99 102 95 102 -4 0 -50 -41 -103 -92z"/>
<path d="M7603 4537 c12 -13 24 -22 26 -20 6 4 -30 43 -40 43 -5 0 2 -10 14
-23z"/>
<path d="M8198 4203 c7 -3 16 -2 19 1 4 3 -2 6 -13 5 -11 0 -14 -3 -6 -6z"/>
<path d="M8128 4193 c7 -3 16 -2 19 1 4 3 -2 6 -13 5 -11 0 -14 -3 -6 -6z"/>
<path d="M8060 4160 c-8 -5 -12 -12 -9 -15 4 -3 12 1 19 10 14 17 11 19 -10 5z"/>
<path d="M8180 4050 c8 -5 20 -10 25 -10 6 0 3 5 -5 10 -8 5 -19 10 -25 10 -5
0 -3 -5 5 -10z"/>
<path d="M9880 2540 c0 -5 7 -7 15 -4 8 4 15 8 15 10 0 2 -7 4 -15 4 -8 0 -15
-4 -15 -10z"/>
<path d="M9780 2435 c0 -8 2 -15 4 -15 2 0 6 7 10 15 3 8 1 15 -4 15 -6 0 -10
-7 -10 -15z"/>
<path d="M7660 4480 c-8 -5 -10 -10 -5 -10 6 0 17 5 25 10 8 5 11 10 5 10 -5
0 -17 -5 -25 -10z"/>
<path d="M13554 9965 c-35 -35 -64 -102 -64 -150 0 -75 18 -113 86 -181 50
-51 64 -71 64 -95 0 -64 -48 -118 -154 -171 -117 -59 -156 -108 -156 -197 0
-57 27 -127 57 -153 9 -7 4 6 -12 30 -32 49 -43 122 -26 174 16 49 57 84 158
137 170 90 202 197 84 290 -77 61 -100 155 -59 241 l21 45 7 -38 c10 -57 38
-87 121 -134 99 -56 126 -78 151 -127 28 -53 31 -155 5 -203 -10 -18 -45 -59
-78 -90 -133 -126 -133 -226 -2 -268 29 -9 60 -26 68 -38 8 -12 15 -17 15 -11
0 18 -44 51 -85 64 -49 15 -64 27 -76 58 -17 45 6 89 94 181 76 79 86 94 98
145 10 45 10 67 0 111 -18 81 -60 129 -164 188 -100 56 -130 91 -124 147 2 19
7 43 11 53 12 25 -11 21 -40 -8z"/>
<path d="M13173 8823 c15 -234 108 -414 255 -491 188 -99 441 -50 557 109 20
27 41 47 46 44 5 -3 44 -6 88 -6 86 0 136 17 178 63 70 75 52 236 -33 289 -19
11 -61 26 -94 32 -52 10 -60 14 -60 34 l0 23 -472 0 -471 0 6 -97z m1022 -57
c42 -18 55 -42 55 -101 0 -35 -6 -52 -23 -69 -27 -27 -91 -41 -138 -31 -26 6
-30 10 -24 28 3 12 14 59 23 104 16 80 18 83 45 83 15 0 43 -6 62 -14z"/>
</g>
</svg>
