<?xml version="1.0" standalone="no"?>
<!DOCTYPE svg PUBLIC "-//W3C//DTD SVG 20010904//EN"
 "http://www.w3.org/TR/2001/REC-SVG-20010904/DTD/svg10.dtd">
<svg version="1.0" xmlns="http://www.w3.org/2000/svg"
 width="2000.000000pt" height="2000.000000pt" viewBox="0 0 2000.000000 2000.000000"
 preserveAspectRatio="xMidYMid meet">

<g transform="translate(0.000000,2000.000000) scale(0.100000,-0.100000)"
fill="#000000" stroke="none">
<path d="M10359 18455 c-13 -8 -31 -18 -39 -22 -8 -4 -48 -26 -88 -50 -40 -24
-77 -43 -81 -43 -5 0 -11 -4 -13 -8 -1 -4 -50 -34 -108 -67 -58 -32 -145 -83
-195 -112 -49 -29 -95 -53 -102 -53 -6 0 -13 -4 -15 -8 -2 -6 -236 -144 -448
-264 -19 -11 -78 -45 -130 -75 -52 -30 -102 -59 -110 -64 -8 -4 -82 -48 -165
-96 -82 -48 -161 -94 -175 -101 -14 -7 -65 -37 -113 -65 -162 -96 -240 -137
-249 -131 -5 3 -7 1 -6 -6 2 -6 -26 -26 -60 -45 -35 -20 -92 -52 -125 -72 -86
-50 -432 -250 -487 -281 -25 -13 -112 -64 -195 -112 -82 -48 -166 -97 -185
-108 -56 -32 -406 -233 -515 -297 -55 -32 -125 -72 -155 -88 -30 -17 -72 -41
-92 -54 -21 -13 -42 -23 -48 -23 -5 0 -10 -4 -10 -10 0 -5 -6 -10 -13 -10 -7
0 -19 -6 -25 -12 -7 -7 -46 -31 -88 -53 -41 -22 -161 -90 -267 -151 -105 -62
-309 -179 -452 -261 -143 -83 -283 -164 -311 -180 -27 -17 -70 -41 -95 -55
-24 -14 -99 -58 -167 -97 -68 -40 -133 -76 -145 -81 -12 -6 -53 -30 -92 -55
-38 -25 -79 -49 -91 -54 -11 -5 -51 -28 -88 -50 -36 -23 -68 -41 -71 -41 -6 0
-168 -94 -215 -125 -19 -13 -61 -37 -94 -55 -32 -18 -81 -45 -108 -61 -27 -16
-51 -29 -54 -29 -2 0 -33 -17 -67 -39 -34 -21 -93 -56 -132 -78 -38 -22 -131
-75 -205 -118 -74 -42 -150 -86 -168 -96 -18 -11 -63 -37 -100 -58 -37 -21
-181 -104 -320 -185 -139 -81 -263 -151 -275 -156 -12 -6 -60 -35 -107 -65
-47 -30 -88 -54 -92 -55 -7 0 -88 -47 -298 -171 -117 -69 -179 -104 -238 -135
l-32 -18 1 -1765 c1 -971 4 -2319 8 -2996 l6 -1230 23 -42 c28 -54 71 -77 138
-76 54 1 103 22 217 92 34 21 85 50 112 65 28 16 78 44 113 63 l62 35 0 -759
0 -759 27 -26 c47 -43 94 -70 118 -70 13 0 75 29 137 65 62 36 167 96 233 134
209 121 1153 666 1325 765 91 52 210 121 265 153 244 142 355 206 585 337 135
78 256 150 268 162 13 11 33 38 43 58 18 36 19 71 19 860 l1 823 182 104 c165
95 466 268 827 476 489 282 706 407 995 573 110 63 256 147 325 187 69 40 215
124 325 187 110 64 349 201 530 306 632 363 851 490 1045 601 169 97 204 121
266 185 48 51 82 98 108 151 71 146 69 92 63 1327 l-5 1107 505 292 c426 246
509 298 534 332 l29 40 0 924 c0 507 -2 923 -5 923 -3 0 -74 -40 -158 -89 -84
-48 -197 -114 -252 -146 -55 -32 -185 -107 -290 -168 -304 -175 -506 -292
-720 -415 -110 -63 -225 -129 -255 -147 -30 -18 -140 -82 -245 -142 -423 -244
-532 -307 -578 -334 -26 -16 -50 -29 -52 -29 -3 0 -23 12 -45 26 l-40 27 0 76
c0 91 22 146 71 184 19 14 108 68 199 120 251 143 738 424 800 461 30 18 155
91 278 161 l222 128 0 743 c0 409 -4 745 -8 748 -5 3 -19 -2 -33 -9z m-729
-1285 c-5 -19 -41 -44 -162 -115 -86 -49 -187 -108 -224 -130 -38 -22 -73 -42
-77 -43 -4 -2 -7 29 -5 69 l3 73 55 31 c30 18 134 77 230 133 l175 101 5 -47
c3 -26 3 -58 0 -72z m1708 -240 c-3 -31 -12 -38 -193 -143 -297 -171 -517
-297 -521 -297 -2 0 -4 17 -4 38 0 25 6 41 18 48 9 6 163 95 342 198 179 103
329 192 335 197 15 15 27 -6 23 -41z m-2463 -147 l0 -68 -60 -36 c-33 -20
-150 -88 -260 -151 -195 -113 -298 -172 -487 -281 -155 -90 -138 -89 -138 -8
l0 69 38 22 c20 13 125 73 232 135 107 62 301 174 430 249 129 74 237 136 240
136 3 0 5 -30 5 -67z m1995 -280 c0 -33 -5 -40 -38 -59 -20 -11 -95 -54 -167
-96 -302 -174 -1312 -758 -1454 -840 -85 -48 -159 -88 -163 -88 -4 0 -8 17 -8
38 0 32 5 41 26 51 15 6 122 67 238 135 116 67 420 243 676 391 256 147 517
298 580 335 171 101 294 169 303 170 4 0 7 -17 7 -37z m470 -53 c0 -36 -4 -41
-42 -64 -24 -13 -130 -74 -235 -135 -106 -61 -199 -114 -208 -117 -12 -5 -15
2 -15 32 l0 39 243 141 c133 78 245 142 250 143 4 1 7 -17 7 -39z m-470 -88
l0 -37 -277 -160 c-153 -88 -281 -161 -285 -163 -4 -2 -8 14 -8 36 0 46 -37
20 325 229 127 73 233 132 238 133 4 0 7 -17 7 -38z m470 -239 c0 -33 -5 -41
-38 -59 -20 -11 -170 -97 -332 -191 -162 -93 -305 -175 -317 -182 -22 -11 -23
-10 -23 28 0 36 4 41 48 67 173 102 648 373 655 374 4 0 7 -17 7 -37z m-3700
-52 l0 -70 -92 -54 c-154 -90 -409 -238 -478 -277 -36 -20 -184 -105 -330
-189 -146 -85 -337 -195 -425 -246 -491 -283 -835 -481 -1030 -595 -318 -185
-606 -350 -611 -350 -2 0 -4 31 -4 69 l0 69 53 30 c28 16 167 96 307 177 258
149 313 181 900 519 179 103 350 202 380 220 30 18 179 104 330 191 258 149
552 318 700 405 104 61 295 170 298 170 1 0 2 -31 2 -69z m3230 -58 l0 -38
-263 -150 c-144 -82 -368 -210 -497 -285 -544 -316 -620 -360 -625 -360 -3 0
-5 17 -5 39 l0 38 273 158 c149 87 301 175 337 195 36 20 157 90 270 155 400
231 495 285 503 285 4 0 7 -17 7 -37z m1 -296 c-1 -4 -1 -20 -1 -35 0 -26 -12
-36 -147 -114 -256 -148 -712 -411 -1188 -686 -253 -145 -464 -268 -469 -273
-19 -17 -26 -9 -26 30 0 38 2 40 73 81 39 24 225 130 412 238 187 107 367 212
400 232 33 20 67 39 75 43 8 3 204 116 435 251 231 134 424 244 428 242 5 -1
8 -5 8 -9z m-2163 -68 l-3 -70 -208 -120 c-114 -65 -210 -119 -212 -119 -3 0
-5 33 -5 73 l0 73 68 36 c37 21 128 73 202 117 74 44 141 80 148 81 10 0 12
-18 10 -71z m2625 -30 c-4 -4 -91 -56 -193 -115 -102 -59 -198 -115 -215 -124
-16 -10 -90 -52 -162 -93 l-133 -76 0 42 1 42 352 202 352 202 3 -36 c2 -20 0
-39 -5 -44z m-463 -68 c0 -44 22 -28 -305 -216 -93 -54 -183 -105 -200 -115
-16 -10 -91 -52 -165 -95 -74 -43 -208 -120 -297 -171 -89 -52 -164 -94 -167
-94 -3 0 -6 18 -6 40 0 36 3 41 42 61 22 11 89 49 147 83 236 139 943 546 949
546 1 0 2 -17 2 -39z m-2828 -284 l-3 -72 -112 -64 c-62 -35 -148 -85 -192
-111 -107 -63 -811 -469 -965 -558 -45 -25 -117 -67 -310 -179 -85 -49 -279
-160 -430 -247 -304 -176 -448 -259 -497 -288 l-33 -20 0 75 0 75 113 65 c61
36 227 131 367 213 140 81 311 180 380 219 69 40 202 116 295 170 94 54 220
127 280 161 61 35 331 191 600 348 270 156 495 285 500 285 6 1 9 -27 7 -72z
m2821 -84 c-5 -2 -76 -43 -158 -91 -83 -49 -247 -144 -365 -212 -118 -68 -251
-145 -295 -171 -44 -26 -82 -46 -85 -44 -3 2 -4 21 -2 42 l4 38 295 170 c162
94 365 211 451 260 l157 90 3 -40 c2 -22 0 -41 -5 -42z m-5993 -371 l0 -68
-127 -73 c-302 -174 -645 -372 -738 -426 -98 -56 -174 -101 -516 -298 -92 -53
-173 -98 -179 -99 -9 -2 -13 16 -14 61 l-1 64 50 32 c28 18 176 104 330 192
154 89 336 194 405 233 69 40 229 133 355 205 127 73 273 158 325 188 52 31
98 56 103 57 4 0 7 -31 7 -68z m1538 -144 l-3 -73 -325 -187 c-179 -103 -328
-188 -332 -188 -5 0 -8 33 -8 73 0 73 0 73 33 89 18 8 147 82 287 164 140 81
273 158 295 171 22 12 44 23 48 23 4 0 7 -33 5 -72z m482 -410 l-1 -73 -227
-129 c-204 -117 -380 -218 -687 -396 -261 -152 -561 -325 -770 -445 -126 -73
-391 -225 -587 -339 -196 -113 -361 -206 -367 -206 -7 0 -11 27 -11 69 l0 69
78 44 c42 24 169 98 282 163 113 65 288 166 390 225 102 58 478 275 835 482
358 206 724 418 815 470 91 52 181 105 200 117 19 11 38 21 43 21 4 0 7 -33 7
-72z m-1436 -142 c0 -36 -2 -67 -5 -70 -5 -5 -356 -209 -419 -244 -25 -13 -81
-46 -125 -72 -118 -70 -595 -344 -632 -364 l-33 -17 0 73 0 73 63 36 c34 20
121 70 192 111 785 454 949 547 954 543 3 -2 6 -33 5 -69z m-1204 -5 l0 -69
-257 -148 c-142 -81 -353 -203 -469 -271 -116 -68 -216 -123 -223 -123 -8 0
-10 20 -8 65 3 73 1 71 116 135 36 20 110 62 164 93 297 174 670 387 674 387
2 0 3 -31 3 -69z m5288 -43 l-3 -73 -150 -87 c-82 -48 -153 -87 -157 -88 -5 0
-8 33 -8 73 l1 72 152 87 c84 48 156 87 160 88 4 0 7 -33 5 -72z m-4820 -30
l-3 -73 -200 -116 c-461 -267 -727 -419 -736 -419 -5 0 -9 31 -9 68 l0 69 188
109 c103 60 203 117 222 128 19 10 76 42 125 71 277 163 401 234 408 234 4 1
7 -32 5 -71z m2980 1 l-3 -70 -140 -81 c-77 -45 -165 -95 -195 -113 -30 -18
-145 -84 -255 -147 -110 -64 -256 -148 -325 -188 -69 -40 -172 -100 -230 -133
-58 -32 -125 -71 -150 -87 -25 -15 -259 -150 -520 -300 -261 -150 -488 -281
-505 -291 -92 -55 -224 -129 -229 -129 -3 0 -6 31 -6 68 l0 68 158 91 c86 49
202 116 257 148 55 32 201 117 325 188 124 72 252 146 285 165 33 19 89 52
125 72 36 20 92 53 125 72 33 19 152 88 265 153 472 271 605 349 800 463 113
66 209 120 213 121 4 1 7 -31 5 -70z m2322 -33 l0 -74 -42 -25 c-131 -74
-1184 -682 -1433 -827 -121 -70 -296 -171 -390 -225 -93 -54 -281 -163 -417
-242 -136 -78 -251 -143 -255 -143 -5 0 -8 32 -8 71 l1 71 105 60 c57 33 208
120 334 193 127 73 345 199 485 280 140 81 316 182 390 225 74 43 248 143 385
223 138 79 340 196 450 260 110 63 243 140 295 170 52 31 96 56 98 57 1 0 2
-33 2 -74z m-1385 -115 l0 -69 -151 -86 c-82 -47 -153 -86 -157 -86 -5 0 -7
30 -5 67 l3 68 150 87 c82 49 152 88 155 88 3 0 5 -31 5 -69z m439 -91 c-1
-39 -3 -72 -5 -74 -2 -2 -67 -39 -144 -83 -77 -44 -252 -145 -390 -225 -391
-226 -552 -318 -559 -318 -4 0 -6 32 -4 72 l3 72 85 49 c47 27 207 119 355
205 149 85 353 204 455 263 102 59 190 108 195 108 6 1 9 -28 9 -69z m-6085
-82 c0 -51 1 -651 3 -1333 l3 -1239 -55 -31 c-30 -17 -140 -80 -243 -140 -103
-59 -190 -106 -192 -103 -3 2 -5 602 -5 1332 l-1 1329 238 138 c131 76 241
138 246 138 4 1 7 -41 6 -91z m2196 -95 c-2 -38 -3 -71 -4 -74 0 -3 -43 -30
-93 -59 -51 -29 -255 -146 -453 -261 -199 -114 -369 -211 -378 -215 -16 -6
-18 0 -15 67 l3 73 120 69 c66 38 226 130 355 205 340 196 340 196 395 230 28
17 55 31 61 31 7 1 10 -23 9 -66z m2896 4 c-1 -4 -1 -34 -1 -66 l0 -59 -77
-44 c-141 -81 -475 -274 -637 -367 -87 -51 -165 -95 -172 -98 -11 -4 -14 9
-14 64 l0 69 98 56 c340 196 495 286 632 366 145 84 173 97 171 79z m-261
-549 l0 -73 -512 -295 c-281 -162 -617 -356 -747 -432 -130 -75 -240 -133
-244 -129 -4 5 -7 37 -5 72 l3 64 140 81 c77 44 228 131 335 193 194 112 501
290 844 488 99 57 181 103 183 103 1 0 3 -33 3 -72z m-1346 -85 c-1 -38 -2
-71 -3 -75 -1 -5 -271 -162 -303 -176 -5 -2 -8 29 -8 70 l0 73 153 87 c83 48
155 88 158 88 3 0 4 -30 3 -67z m416 -105 l0 -73 -73 -41 c-39 -23 -128 -75
-197 -115 -69 -39 -213 -123 -320 -184 -346 -199 -395 -227 -408 -238 -7 -5
-14 -8 -16 -6 -9 9 -9 130 0 138 5 5 97 60 204 122 397 228 647 373 725 419
44 27 81 48 83 49 1 1 2 -32 2 -71z m-950 -210 l0 -73 -103 -58 c-56 -31 -122
-69 -147 -83 -213 -123 -582 -336 -655 -379 -49 -29 -225 -130 -390 -225 -165
-95 -315 -181 -332 -192 l-33 -20 0 75 0 74 153 88 c83 49 188 109 232 135
125 73 874 506 965 557 19 11 94 54 165 96 72 42 133 76 138 76 4 1 7 -32 7
-71z m4077 -113 c-4 -10 -132 -87 -307 -185 -36 -20 -109 -62 -162 -93 -175
-102 -289 -168 -523 -302 -126 -73 -274 -157 -327 -188 -54 -32 -142 -82 -195
-113 -191 -110 -549 -318 -638 -370 -49 -28 -295 -170 -545 -314 -250 -144
-484 -279 -520 -300 -36 -21 -168 -97 -295 -170 -126 -73 -297 -172 -380 -220
-82 -47 -203 -117 -267 -154 l-118 -68 0 -39 c0 -21 -4 -39 -8 -39 -4 0 -108
-58 -231 -130 -123 -71 -225 -130 -227 -130 -3 0 -30 -16 -60 -35 -30 -19 -56
-35 -58 -35 -2 0 -119 -67 -261 -150 -142 -82 -259 -150 -262 -150 -2 0 -21
-11 -42 -24 -39 -25 -281 -165 -766 -443 -148 -86 -274 -159 -280 -163 -5 -4
-30 -19 -55 -32 -25 -14 -90 -51 -145 -83 -55 -32 -199 -116 -320 -185 l-220
-127 -41 23 c-22 13 -44 24 -47 24 -4 0 -7 -17 -7 -38 0 -38 -1 -39 -87 -88
-49 -27 -94 -50 -100 -52 -10 -3 -13 247 -13 1222 0 674 -1 1229 -1 1234 -2 7
73 52 364 218 l127 72 1 -1031 c2 -1183 1 -1093 16 -1090 7 2 158 87 335 189
178 103 395 228 483 279 88 51 216 125 285 165 69 40 231 133 360 207 129 75
287 166 350 203 418 245 746 430 763 430 8 0 36 -16 63 -35 27 -19 52 -35 57
-35 4 0 67 34 140 76 73 43 251 146 397 229 296 171 597 344 740 427 52 30
172 99 265 153 94 54 220 127 280 163 61 36 144 84 185 107 41 23 102 58 135
77 33 19 152 88 265 153 263 151 572 330 725 418 66 39 176 102 245 142 69 40
213 123 320 185 107 62 287 166 400 230 l205 118 3 -61 c2 -33 1 -65 -1 -72z
m-5702 -140 l0 -66 -105 -60 c-317 -183 -399 -229 -414 -235 -14 -5 -16 3 -16
62 0 67 1 69 33 88 17 10 121 69 230 132 109 62 207 120 220 129 43 30 52 21
52 -50z m535 -28 l0 -73 -72 -41 c-40 -22 -129 -73 -198 -113 -156 -91 -174
-101 -515 -298 l-280 -161 -3 67 c-3 60 -1 69 19 82 21 14 85 51 554 323 105
60 258 149 340 197 83 48 151 88 153 89 1 0 2 -32 2 -72z m2400 4 l0 -69 -150
-86 c-83 -47 -155 -86 -160 -86 -6 0 -10 31 -10 69 l0 69 108 61 c59 33 125
71 147 85 61 38 65 36 65 -43z m1307 -335 c-4 -11 -287 -176 -301 -176 -3 0
-6 30 -6 68 l0 67 153 87 152 87 3 -61 c2 -33 1 -66 -1 -72z m-2987 56 l0 -67
-197 -115 c-109 -63 -288 -166 -398 -230 -207 -121 -295 -170 -301 -170 -2 0
-4 31 -4 69 l0 69 193 110 c241 139 396 228 562 325 72 42 133 76 138 76 4 1
7 -29 7 -67z m540 -36 c0 -61 -3 -75 -17 -80 -10 -4 -47 -24 -83 -45 -36 -22
-150 -88 -255 -148 -104 -60 -285 -164 -401 -231 -117 -67 -217 -122 -223
-122 -7 0 -11 24 -11 68 l0 68 207 119 c114 66 229 133 257 148 28 16 85 48
126 73 159 94 385 223 393 223 4 1 7 -32 7 -73z m595 -7 l-1 -62 -164 -95
c-91 -52 -255 -146 -365 -210 -925 -534 -1040 -599 -1046 -589 -4 7 -6 39 -5
71 l1 60 50 29 c28 16 154 89 280 162 127 73 316 182 420 242 432 250 537 311
674 390 80 46 147 79 150 74 3 -5 6 -37 6 -72z m1335 -248 l0 -70 -92 -54
c-154 -90 -408 -237 -488 -282 -41 -24 -149 -86 -240 -138 l-165 -96 -3 66
c-2 45 1 70 10 78 7 7 76 48 153 92 133 76 211 121 433 250 160 93 387 223
390 223 1 0 2 -31 2 -69z m-2420 -708 l-1 -78 -177 -101 c-97 -55 -306 -176
-464 -267 -158 -92 -292 -167 -297 -167 -7 0 -11 27 -11 69 l0 69 113 65 c61
36 247 142 412 237 165 95 327 190 360 211 33 20 61 38 63 38 1 1 2 -34 2 -76z
m1220 10 l0 -68 -108 -61 c-131 -74 -806 -463 -955 -551 -60 -34 -111 -63
-113 -63 -3 0 -4 32 -2 71 l3 72 65 37 c63 36 391 224 795 458 259 149 298
172 308 172 4 0 7 -30 7 -67z m-1960 -788 c0 -73 11 -60 -122 -136 -86 -49
-263 -152 -405 -235 -50 -30 -94 -54 -97 -54 -3 0 -6 31 -6 69 l0 68 153 88
c83 48 172 100 197 115 25 15 79 46 120 70 41 24 89 51 105 61 49 30 55 26 55
-46z m553 -92 c-5 -2 -114 -64 -243 -139 -129 -75 -253 -146 -275 -159 -56
-31 -322 -185 -492 -283 -77 -45 -147 -84 -155 -87 -10 -4 -13 9 -13 60 1 36
5 69 10 74 6 6 96 59 200 119 210 121 326 188 710 410 l260 151 3 -72 c2 -39
-1 -73 -5 -74z m145 -819 l-3 -45 -140 -81 c-77 -44 -212 -122 -300 -173 -88
-50 -263 -152 -390 -225 -126 -73 -259 -149 -295 -170 -36 -20 -184 -105 -330
-190 -146 -84 -339 -196 -430 -248 -91 -52 -175 -102 -187 -110 -23 -14 -23
-14 -23 34 l0 49 78 44 c123 71 312 180 517 299 450 260 777 449 870 502 55
31 217 125 360 208 143 83 264 151 268 151 4 1 7 -20 5 -45z m-451 -828 c-3
-7 -45 -35 -94 -63 -48 -28 -173 -100 -278 -161 -104 -60 -350 -201 -545 -314
-195 -113 -426 -246 -514 -296 -87 -51 -160 -92 -162 -92 -2 0 -4 20 -4 44 l0
44 108 62 c122 71 372 216 572 330 74 43 311 180 525 304 l390 225 3 -35 c2
-20 1 -42 -1 -48z m-1359 -33 l-3 -47 -85 -49 c-156 -91 -554 -320 -640 -369
l-85 -48 -3 41 c-2 23 0 45 5 50 4 4 142 84 306 178 163 95 341 198 395 230
53 33 101 60 105 60 4 1 7 -20 5 -46z m1862 -42 c0 -43 -10 -53 -100 -103 -46
-26 -177 -101 -500 -288 -102 -59 -291 -168 -420 -243 -129 -74 -305 -175
-390 -225 -85 -49 -273 -157 -417 -241 -144 -83 -266 -151 -270 -151 -5 0 -7
20 -5 45 l4 44 106 62 c144 83 135 78 407 234 132 76 294 169 360 208 66 39
149 87 185 107 36 20 135 77 220 126 85 50 247 144 360 208 272 157 391 226
415 242 35 23 45 17 45 -25z m-1500 -86 l0 -44 -125 -73 c-68 -40 -163 -95
-211 -123 -48 -27 -135 -78 -193 -112 -58 -35 -110 -63 -114 -63 -4 0 -7 21
-5 46 l3 46 320 184 c176 101 321 184 323 184 1 0 2 -20 2 -45z m708 -570 c-3
-3 -748 -434 -1038 -600 -107 -62 -212 -122 -232 -134 l-38 -23 0 49 0 48 103
58 c56 31 350 200 652 375 l550 318 3 -44 c2 -24 2 -45 0 -47z m-1308 -2 c0
-21 -4 -43 -8 -48 -4 -6 -45 -33 -92 -59 -139 -80 -149 -85 -308 -177 -83 -49
-157 -89 -163 -89 -6 0 -9 17 -7 42 l3 43 110 64 c370 214 451 260 458 261 4
0 7 -17 7 -37z m240 -236 l0 -43 -311 -179 c-418 -242 -493 -285 -501 -285
-16 0 -8 77 10 92 9 8 114 70 232 138 118 68 274 157 345 198 72 42 148 86
170 99 22 12 43 23 48 23 4 0 7 -19 7 -43z m810 -240 c0 -39 -3 -45 -32 -60
-18 -9 -53 -28 -78 -43 -140 -82 -329 -191 -505 -292 -110 -62 -220 -126 -245
-142 -25 -15 -80 -46 -123 -70 l-78 -42 3 47 3 46 365 211 c201 116 385 222
410 236 25 13 70 39 100 57 89 54 164 95 173 95 4 0 7 -19 7 -43z m-822 -343
c-7 -6 -29 -20 -48 -31 -19 -10 -193 -109 -385 -220 -193 -112 -354 -203 -360
-203 -5 0 -10 19 -10 41 l0 41 190 110 c105 60 264 153 355 206 91 52 188 108
215 123 l50 28 3 -41 c2 -25 -2 -46 -10 -54z"/>
<path d="M2701 14354 c0 -11 3 -14 6 -6 3 7 2 16 -1 19 -3 4 -6 -2 -5 -13z"/>
<path d="M14425 13663 c-27 -2 -135 -18 -240 -35 -244 -40 -424 -43 -555 -10
-148 38 -216 27 -283 -47 -47 -52 -63 -108 -47 -170 16 -62 44 -106 85 -131
l35 -22 -24 -41 c-50 -86 -71 -173 -70 -292 1 -94 5 -121 28 -185 34 -93 105
-207 117 -188 5 7 9 36 9 64 0 180 83 436 194 601 56 85 153 183 160 162 2 -8
14 -45 27 -84 78 -249 248 -441 505 -572 54 -28 132 -61 172 -74 l72 -23 0
-85 c0 -129 44 -201 125 -201 22 0 25 4 25 38 0 55 43 134 90 167 96 66 237
29 291 -77 26 -50 23 -152 -5 -210 -36 -75 -181 -188 -241 -188 -38 0 -89 22
-120 51 -17 16 -34 29 -38 29 -4 0 -6 -127 -4 -282 l2 -283 50 -85 c28 -47 59
-101 69 -120 9 -19 24 -46 32 -60 7 -14 14 -32 14 -41 0 -19 -36 -69 -98 -134
-26 -28 -60 -65 -77 -83 l-30 -33 52 -48 c62 -57 77 -88 62 -131 -6 -16 -15
-30 -20 -30 -5 0 -9 -4 -9 -10 0 -5 -25 -51 -56 -102 -32 -51 -64 -105 -73
-120 -9 -15 -69 -113 -134 -218 l-117 -191 10 -86 c6 -47 9 -87 7 -89 -2 -2
-38 -9 -80 -16 -92 -14 -249 3 -309 33 -22 11 -40 14 -43 9 -9 -14 40 -54 116
-94 75 -40 223 -71 296 -62 38 4 43 2 48 -17 3 -12 18 -80 33 -150 l29 -128
-31 -13 c-17 -7 -62 -23 -101 -35 -83 -27 -262 -89 -290 -101 -78 -33 -478
-159 -487 -154 -6 4 -8 3 -5 -3 8 -13 19 -9 -248 -100 -121 -41 -226 -79 -232
-85 -20 -16 -15 -27 7 -21 23 6 48 -18 87 -84 34 -59 53 -135 53 -220 l0 -72
-45 -7 c-25 -3 -45 -10 -45 -14 0 -4 17 -16 37 -25 41 -20 -14 -30 795 142
l308 65 42 -24 c24 -14 133 -76 243 -140 110 -63 292 -168 405 -233 113 -65
291 -168 395 -228 332 -193 327 -190 344 -180 9 6 16 14 17 19 0 5 15 38 31
74 65 138 78 207 77 400 -1 155 -4 185 -27 265 -14 49 -22 92 -18 95 4 3 16
18 28 35 l21 29 -37 56 c-54 80 -106 175 -167 308 -40 87 -51 119 -42 129 7 9
7 13 -1 13 -6 0 -15 10 -20 23 -5 12 -21 49 -36 82 -16 33 -54 141 -87 239
-56 172 -58 181 -48 231 l11 52 111 27 c122 29 272 89 355 142 29 19 57 34 62
34 26 0 371 -246 496 -354 39 -33 72 -61 74 -63 2 -1 -4 -86 -13 -190 -8 -103
-32 -399 -52 -657 l-37 -469 68 -62 c41 -37 65 -66 61 -73 -4 -8 -2 -10 7 -6
18 6 16 -14 72 679 25 308 49 572 53 587 7 26 10 24 92 -73 47 -56 92 -112
100 -125 16 -26 36 -33 26 -9 -3 8 -1 15 4 15 6 0 10 -5 10 -11 0 -8 6 -7 17
2 9 8 17 13 17 11 1 -2 9 0 18 3 26 10 67 70 75 107 7 40 14 658 7 640 -3 -6
-10 -10 -15 -6 -5 3 -9 0 -9 -6 0 -6 -21 -20 -47 -31 -27 -11 -55 -24 -65 -29
-12 -7 -19 -2 -29 21 -22 55 -133 232 -196 316 -96 125 -215 245 -353 356
l-125 101 -17 115 c-27 192 -65 316 -148 482 -88 174 -167 276 -376 484 -140
139 -191 205 -236 301 -31 66 -32 75 -33 189 0 93 5 142 23 215 24 94 43 274
31 288 -3 4 -11 26 -17 49 -22 74 -117 172 -210 216 -47 22 -85 31 -136 35
l-71 4 -29 61 c-65 139 -219 238 -395 252 -123 11 -136 11 -186 8z m318 -4762
c4 -15 -1 -21 -22 -25 -43 -9 -242 -26 -296 -25 -50 1 -21 8 220 58 69 15 92
13 98 -8z"/>
<path d="M12494 12986 c11 -9 24 -16 30 -16 12 0 7 5 -24 19 -24 11 -24 11 -6
-3z"/>
<path d="M13571 12909 c-23 -25 -36 -68 -24 -80 5 -5 33 8 63 27 74 49 78 53
60 64 -27 17 -78 11 -99 -11z"/>
<path d="M13631 12703 c-24 -30 -20 -58 11 -85 26 -23 40 -23 72 3 31 25 34
61 6 89 -28 28 -64 25 -89 -7z"/>
<path d="M14159 12676 c-42 -21 -42 -82 2 -109 24 -15 68 0 81 29 25 55 -29
108 -83 80z"/>
<path d="M13047 12669 c7 -7 15 -10 18 -7 3 3 -2 9 -12 12 -14 6 -15 5 -6 -5z"/>
<path d="M13449 12431 c16 -10 14 -17 -24 -116 -43 -113 -48 -136 -43 -215 7
-119 34 -166 173 -301 118 -115 148 -156 160 -220 l7 -36 -134 -6 c-138 -6
-254 -30 -368 -77 -30 -12 -73 -29 -94 -37 -22 -8 -59 -27 -82 -42 -41 -28
-59 -43 -159 -131 -28 -25 -79 -70 -114 -100 -74 -64 -304 -265 -412 -361 -41
-36 -90 -76 -109 -90 -19 -13 -48 -36 -63 -51 -17 -16 -35 -25 -45 -21 -14 4
-14 3 -3 -5 15 -11 20 -6 -156 -163 -39 -35 -86 -82 -104 -104 -56 -70 -409
-615 -409 -633 0 -4 24 -21 53 -38 28 -17 129 -74 222 -128 94 -54 182 -109
197 -123 l26 -25 43 64 c23 34 59 86 78 113 274 390 255 367 341 425 45 30
130 90 190 132 60 42 124 85 142 94 36 18 127 82 143 100 9 10 152 110 184
129 11 6 13 3 7 -16 -23 -86 -58 -349 -46 -349 4 0 10 -120 13 -267 5 -194 10
-270 19 -280 7 -6 45 -29 83 -51 39 -21 109 -61 156 -89 48 -27 93 -52 100
-55 12 -4 14 35 17 231 3 281 18 565 35 670 14 90 14 136 -2 381 -23 350 -23
361 -7 385 8 12 45 35 83 50 125 50 113 35 106 141 -7 109 0 124 74 175 27 18
82 58 123 88 41 31 78 55 83 53 4 -1 7 2 7 7 0 14 91 71 103 64 6 -3 7 -1 3 6
-4 6 0 14 8 17 12 5 16 21 16 63 l0 57 -103 -4 c-210 -8 -353 60 -422 201 -30
63 -51 182 -62 347 -6 113 -15 150 -35 150 -10 0 -9 -3 1 -9z"/>
<path d="M11760 12196 c0 -3 9 -10 20 -16 11 -6 20 -8 20 -6 0 3 -9 10 -20 16
-11 6 -20 8 -20 6z"/>
<path d="M14085 12190 c-18 -8 -17 -9 8 -9 15 -1 27 4 27 9 0 12 -8 12 -35 0z"/>
<path d="M14001 12166 c-41 -15 -49 -31 -24 -44 14 -8 25 -2 49 24 33 36 29
40 -25 20z"/>
<path d="M12480 11776 c0 -2 7 -7 16 -10 8 -3 12 -2 9 4 -6 10 -25 14 -25 6z"/>
<path d="M12647 11679 c7 -7 15 -10 18 -7 3 3 -2 9 -12 12 -14 6 -15 5 -6 -5z"/>
<path d="M12007 10829 c7 -7 15 -10 18 -7 3 3 -2 9 -12 12 -14 6 -15 5 -6 -5z"/>
<path d="M14430 9771 c0 -6 4 -13 10 -16 6 -3 7 1 4 9 -7 18 -14 21 -14 7z"/>
<path d="M15585 9569 c-4 -6 -5 -12 -2 -15 2 -3 7 2 10 11 7 17 1 20 -8 4z"/>
<path d="M15876 8888 c3 -5 10 -6 15 -3 13 9 11 12 -6 12 -8 0 -12 -4 -9 -9z"/>
<path d="M15892 8720 c0 -19 2 -27 5 -17 2 9 2 25 0 35 -3 9 -5 1 -5 -18z"/>
<path d="M6962 6703 l3 -1948 64 -34 c71 -37 59 -39 164 21 l37 22 0 1392 0
1392 43 25 c23 14 65 37 92 52 56 31 138 79 233 137 35 21 65 38 68 38 2 0 23
12 47 27 23 15 44 28 47 29 21 5 39 18 34 25 -3 5 2 6 10 3 10 -4 16 -1 16 7
0 7 3 9 6 6 4 -4 21 4 38 16 17 12 47 30 66 39 50 25 109 62 112 70 3 7 -203
134 -233 143 -17 6 -89 -29 -129 -60 -8 -7 -42 -27 -75 -45 -103 -57 -268
-151 -318 -183 -26 -16 -50 -27 -53 -24 -3 2 -5 148 -4 323 l0 319 -47 32
c-58 38 -207 123 -217 123 -3 0 -5 -876 -4 -1947z"/>
<path d="M15876 8325 c-9 -26 -7 -32 5 -12 6 10 9 21 6 23 -2 3 -7 -2 -11 -11z"/>
<path d="M16635 8238 c-22 -23 -85 -77 -140 -121 -55 -43 -111 -88 -123 -99
-13 -11 -70 -53 -125 -94 -56 -42 -112 -83 -124 -93 l-23 -17 75 -43 75 -42 0
-45 c0 -24 3 -44 6 -44 3 0 41 27 84 59 73 55 79 57 84 37 14 -58 309 -1598
385 -2013 28 -150 56 -281 63 -293 10 -15 23 -20 60 -20 58 0 80 19 74 63 -3
18 -8 64 -11 102 -7 85 -46 402 -81 655 -30 227 -130 939 -144 1035 -6 39 -32
214 -59 390 -30 198 -45 324 -40 331 5 7 8 75 7 153 l-3 141 -40 -42z"/>
<path d="M18856 8152 c-3 -5 1 -9 9 -9 8 0 12 4 9 9 -3 4 -7 8 -9 8 -2 0 -6
-4 -9 -8z"/>
<path d="M16155 7293 c-44 -25 -104 -59 -132 -76 l-53 -31 0 -406 0 -405 -137
-80 c-76 -44 -158 -90 -183 -104 -25 -13 -52 -29 -60 -36 -8 -7 -46 -29 -85
-50 -67 -36 -224 -127 -383 -222 -40 -24 -75 -43 -77 -43 -2 0 -46 -25 -96
-55 -51 -30 -93 -54 -95 -52 -2 2 35 201 81 443 47 241 84 445 83 452 -2 8
-34 -6 -88 -39 -47 -27 -111 -65 -142 -82 -32 -17 -58 -36 -58 -42 0 -29 -122
-862 -128 -873 -6 -11 -295 -183 -462 -275 -30 -16 -59 -33 -65 -37 -13 -10
-263 -154 -335 -193 -30 -16 -59 -33 -65 -38 -5 -4 -37 -23 -70 -42 -33 -18
-148 -85 -255 -147 -107 -62 -215 -124 -240 -138 -25 -14 -56 -32 -70 -42 -29
-19 -159 -90 -165 -90 -3 0 -5 24 -5 53 l0 54 83 12 c45 7 100 17 123 22 l41
11 12 89 c6 49 43 248 81 442 38 193 67 353 65 355 -4 5 -343 -190 -390 -223
-16 -12 -57 -36 -89 -55 -46 -26 -62 -31 -75 -22 -35 24 -340 202 -347 202 -6
0 -3 -326 5 -550 l6 -185 65 -32 c35 -18 84 -35 108 -39 l43 -6 -1 -432 c-1
-237 -1 -961 -1 -1608 l1 -1177 59 -35 c32 -20 66 -36 75 -36 24 0 67 31 59
43 -3 6 -1 7 5 3 6 -4 25 0 42 9 l30 16 0 1048 0 1048 23 10 c13 6 52 37 85
68 l62 57 0 232 -1 231 -23 -38 c-28 -45 -126 -157 -138 -157 -9 0 -11 197 -2
251 5 30 14 40 48 57 47 25 64 36 126 78 25 17 87 54 138 83 54 31 89 57 86
63 -4 7 -2 8 5 4 11 -7 117 48 304 161 48 29 92 53 98 53 6 0 7 5 3 12 -4 6
-3 8 4 4 14 -9 84 33 75 47 -3 6 -1 7 5 3 7 -4 38 8 70 26 31 19 71 42 87 51
17 9 29 21 27 27 -1 7 2 9 8 5 6 -4 21 0 33 8 12 7 49 29 82 47 33 18 63 37
66 42 3 5 9 9 13 9 6 -2 117 60 188 106 21 12 40 23 43 23 3 0 24 12 48 27 23
15 44 28 47 28 20 5 60 30 60 39 0 6 3 6 9 0 5 -5 -4 -113 -24 -269 -19 -143
-38 -312 -44 -375 -11 -112 -11 -116 10 -132 12 -10 36 -18 54 -18 66 0 66 0
146 425 40 215 77 416 82 447 l10 58 81 46 c214 124 254 149 249 158 -3 5 -1
6 6 2 11 -7 80 29 193 101 21 12 40 23 42 23 3 0 40 21 83 46 43 26 96 57 118
69 22 13 123 71 225 129 l185 107 3 -1313 c2 -1257 3 -1314 20 -1325 10 -6 41
-23 70 -38 48 -25 52 -26 76 -10 14 10 23 22 19 28 -3 5 -1 7 5 3 6 -3 27 1
46 11 l36 17 0 1948 c0 1071 -1 1948 -2 1947 -2 0 -39 -21 -83 -46z m-1635
-2049 c0 -2 -9 0 -20 6 -11 6 -20 13 -20 16 0 2 9 0 20 -6 11 -6 20 -13 20
-16z"/>
<path d="M15285 6796 c-60 -36 -70 -46 -67 -67 16 -119 76 -407 88 -419 18
-18 98 -20 115 -3 16 16 13 87 -11 293 -27 222 -30 240 -43 239 -7 0 -43 -20
-82 -43z"/>
<path d="M11071 6228 c-6 -29 -22 -125 -36 -213 -14 -88 -42 -258 -61 -379
l-36 -219 29 -23 c131 -110 346 -170 582 -162 l103 3 58 165 c32 91 80 223
108 295 l50 129 -127 74 c-69 41 -171 100 -226 132 -286 165 -344 199 -387
223 l-47 27 -10 -52z"/>
<path d="M1565 6229 c-4 -6 -5 -12 -2 -15 2 -3 7 2 10 11 7 17 1 20 -8 4z"/>
<path d="M11611 4710 c-18 -33 -49 -69 -135 -161 -65 -69 -115 -150 -145 -234
-15 -42 -51 -177 -51 -191 0 -6 23 -16 50 -22 50 -12 51 -11 121 30 81 49 166
127 174 160 3 13 4 118 3 233 -3 186 -5 207 -17 185z"/>
<path d="M11123 3851 c0 -11 5 -18 9 -15 4 3 5 11 1 19 -7 21 -12 19 -10 -4z"/>
<path d="M10126 3837 c3 -10 9 -15 12 -12 3 3 0 11 -7 18 -10 9 -11 8 -5 -6z"/>
<path d="M10151 3824 c0 -11 3 -14 6 -6 3 7 2 16 -1 19 -3 4 -6 -2 -5 -13z"/>
</g>
</svg>
