<?xml version="1.0" standalone="no"?>
<!DOCTYPE svg PUBLIC "-//W3C//DTD SVG 20010904//EN"
 "http://www.w3.org/TR/2001/REC-SVG-20010904/DTD/svg10.dtd">
<svg version="1.0" xmlns="http://www.w3.org/2000/svg"
 width="2000.000000pt" height="2000.000000pt" viewBox="0 0 2000.000000 2000.000000"
 preserveAspectRatio="xMidYMid meet">

<g transform="translate(0.000000,2000.000000) scale(0.100000,-0.100000)"
fill="#000000" stroke="none">
<path d="M8310 17292 c-73 -36 -101 -128 -62 -201 28 -52 72 -71 164 -71 l78
0 0 145 0 145 -72 0 c-50 0 -84 -6 -108 -18z"/>
<path d="M14262 15680 c3 -89 3 -90 41 -127 35 -35 41 -38 96 -38 104 0 151
56 151 183 l0 72 -146 0 -146 0 4 -90z"/>
<path d="M3930 15085 c0 -119 41 -175 132 -183 44 -3 59 0 88 20 51 34 70 79
70 166 l0 72 -145 0 -145 0 0 -75z"/>
<path d="M8370 13851 c-79 -24 -110 -76 -110 -186 l0 -75 145 0 145 0 0 78 c0
99 -19 139 -80 170 -47 23 -60 25 -100 13z"/>
<path d="M14950 13254 c-209 -40 -346 -121 -438 -258 -91 -136 -143 -316 -146
-503 l-1 -93 -28 0 c-32 0 -83 -24 -89 -42 -3 -9 -28 -5 -95 15 -146 45 -243
59 -418 60 -361 1 -707 -111 -1058 -342 -343 -227 -546 -483 -588 -744 -25
-161 6 -430 75 -641 30 -89 109 -276 118 -276 2 0 4 83 4 185 1 101 5 204 8
228 l7 44 97 6 c53 2 105 8 115 12 13 5 17 2 17 -13 0 -10 10 -32 22 -47 20
-26 25 -27 86 -22 42 3 82 0 111 -9 107 -32 161 -8 161 73 0 61 -47 103 -116
103 -37 0 -29 13 28 50 105 68 212 198 249 303 7 20 16 37 19 37 3 0 21 -30
39 -67 65 -132 177 -263 284 -331 l46 -29 -39 -16 c-52 -20 -74 -66 -59 -121
5 -19 18 -40 29 -46 25 -13 82 -13 117 1 15 7 66 12 113 13 84 1 85 1 105 33
l20 32 131 1 131 0 19 -52 c16 -46 19 -86 20 -318 1 -261 7 -320 39 -396 17
-42 73 -124 84 -124 4 0 11 31 15 70 8 89 50 223 87 276 84 123 206 164 318
108 74 -37 104 -86 109 -176 9 -160 -97 -354 -235 -427 -13 -6 -39 -46 -62
-95 -31 -68 -38 -91 -32 -118 l7 -33 63 60 c251 238 531 731 626 1102 104 405
20 827 -231 1167 -35 47 -59 88 -54 91 6 4 10 15 10 26 0 26 7 24 69 -17 155
-104 277 -287 316 -472 19 -88 19 -265 0 -426 -30 -254 -35 -352 -25 -448 18
-179 75 -303 191 -418 60 -59 178 -140 205 -140 7 0 5 18 -7 54 -10 30 -22 80
-25 112 l-7 57 69 -53 c141 -108 301 -155 457 -132 44 6 84 15 89 20 4 4 -17
20 -47 36 -107 56 -202 188 -240 331 -20 77 -19 235 1 331 24 120 68 233 181
467 184 386 212 477 220 727 4 125 1 187 -11 256 -80 461 -387 807 -826 930
-82 23 -118 27 -260 29 -91 2 -176 1 -190 -1z"/>
<path d="M12651 10526 c-50 -53 -47 -154 6 -195 36 -29 69 -26 104 8 26 26 29
36 29 89 0 50 -4 66 -26 91 -33 39 -80 42 -113 7z"/>
<path d="M13467 10509 c-62 -36 -61 -185 2 -219 75 -40 146 42 126 146 -12 67
-76 103 -128 73z"/>
<path d="M7821 9422 c-52 -28 -71 -73 -71 -164 l0 -78 145 0 145 0 0 70 c0
122 -42 180 -132 187 -39 3 -62 -1 -87 -15z"/>
<path d="M16796 9026 c-152 -279 -300 -742 -401 -1257 l-37 -187 45 -113 c120
-304 176 -580 221 -1079 35 -385 41 -543 41 -1115 0 -482 -3 -613 -18 -774
-30 -320 -74 -544 -121 -614 -48 -72 -183 -132 -354 -158 l-82 -12 0 -281 c0
-765 37 -2029 85 -2911 8 -148 18 -327 21 -397 l7 -128 979 0 978 0 0 44 c0
79 -113 3061 -170 4481 -52 1292 -100 2328 -120 2610 -51 697 -159 1110 -377
1439 -87 132 -264 309 -392 395 -79 52 -239 141 -255 141 -2 0 -25 -38 -50
-84z"/>
<path d="M10430 7130 c0 -1493 0 -1500 20 -1500 20 0 20 7 20 1500 0 1493 0
1500 -20 1500 -20 0 -20 -7 -20 -1500z"/>
<path d="M12851 8282 c-19 -35 -209 -469 -291 -662 -89 -210 -144 -352 -192
-495 -17 -49 -70 -189 -118 -310 -164 -412 -228 -601 -252 -749 -21 -124 15
-319 109 -600 43 -125 62 -160 80 -142 3 3 -17 75 -45 158 -107 321 -131 477
-97 640 23 109 89 300 215 618 62 157 135 350 162 430 59 171 184 472 349 843
65 148 117 273 113 278 -8 14 -22 11 -33 -9z"/>
<path d="M14942 8085 c-109 -133 -224 -420 -266 -666 -100 -583 25 -1424 335
-2247 21 -58 39 -108 39 -113 0 -10 -119 -36 -244 -54 -121 -17 -450 -31
-1029 -45 -235 -5 -442 -10 -459 -10 l-31 0 7 -77 c6 -70 35 -530 52 -815 6
-99 8 -108 26 -108 18 0 19 5 14 63 -15 150 -57 890 -51 895 3 3 173 9 378 14
493 10 931 26 1042 38 50 6 147 22 217 36 l127 26 82 -26 c169 -55 336 -141
480 -247 82 -61 99 -69 99 -45 0 32 -201 169 -352 241 -51 24 -143 61 -204 80
l-111 36 -65 177 c-174 467 -297 990 -337 1432 -14 148 -14 449 0 581 31 305
119 573 253 772 25 37 46 72 46 77 0 23 -21 17 -48 -15z"/>
<path d="M7840 6583 c0 -5 48 -495 107 -1090 99 -1000 108 -1083 125 -1083 22
0 22 -2 3 170 -18 170 -27 258 -122 1223 -71 726 -78 787 -95 787 -10 0 -18
-3 -18 -7z"/>
<path d="M12170 4236 c0 -10 9 -16 21 -16 24 0 21 23 -4 28 -10 2 -17 -3 -17
-12z"/>
<path d="M12212 4170 c0 -14 2 -19 5 -12 2 6 2 18 0 25 -3 6 -5 1 -5 -13z"/>
<path d="M4150 3610 c0 -20 7 -20 5235 -20 5228 0 5235 0 5235 20 0 20 -7 20
-5235 20 -5228 0 -5235 0 -5235 -20z"/>
<path d="M15096 2921 c-3 -5 18 -108 48 -228 148 -596 203 -976 193 -1321 -10
-328 -78 -528 -238 -697 -62 -64 -85 -105 -61 -105 13 0 135 130 169 180 233
344 223 927 -35 1979 -43 178 -60 219 -76 192z"/>
</g>
</svg>
