<?xml version="1.0" standalone="no"?>
<!DOCTYPE svg PUBLIC "-//W3C//DTD SVG 20010904//EN"
 "http://www.w3.org/TR/2001/REC-SVG-20010904/DTD/svg10.dtd">
<svg version="1.0" xmlns="http://www.w3.org/2000/svg"
 width="2600.000000pt" height="2000.000000pt" viewBox="0 0 2600.000000 2000.000000"
 preserveAspectRatio="xMidYMid meet">

<g transform="translate(0.000000,2000.000000) scale(0.100000,-0.100000)"
fill="#000000" stroke="none">
<path d="M12774 17605 c-9 -21 -5 -24 62 -41 32 -9 84 -29 116 -45 58 -29 78
-30 78 -5 0 23 -121 78 -223 100 -20 5 -29 2 -33 -9z"/>
<path d="M15047 17613 c-19 -19 -1 -32 63 -47 38 -8 92 -27 119 -41 61 -30 71
-31 71 -4 0 24 -69 59 -165 84 -66 17 -79 18 -88 8z"/>
<path d="M17314 17609 c-10 -17 6 -25 69 -37 32 -6 85 -23 119 -36 63 -26 78
-26 78 0 0 18 -72 50 -155 70 -72 17 -102 18 -111 3z"/>
<path d="M10225 17596 c-84 -27 -185 -88 -185 -112 0 -22 25 -17 76 16 26 16
75 39 110 50 49 17 64 26 64 41 0 22 -9 23 -65 5z"/>
<path d="M10495 17600 c-10 -16 1 -24 70 -44 33 -10 83 -31 111 -47 60 -34 74
-36 74 -9 0 40 -235 133 -255 100z"/>
<path d="M12470 17577 c-78 -32 -150 -84 -150 -107 0 -26 15 -25 53 4 29 22
133 74 180 90 23 8 17 30 -9 33 -10 2 -44 -7 -74 -20z"/>
<path d="M14741 17565 c-61 -29 -151 -92 -151 -106 0 -26 35 -18 89 19 32 23
80 50 107 60 27 11 50 27 52 36 5 24 -34 20 -97 -9z"/>
<path d="M17022 17558 c-63 -31 -152 -101 -152 -119 0 -26 34 -16 82 23 29 24
77 54 106 66 37 16 52 28 52 42 0 27 -14 25 -88 -12z"/>
<path d="M17726 17391 c-3 -5 10 -35 29 -67 20 -33 45 -85 57 -116 19 -54 39
-71 53 -49 8 14 -38 134 -75 190 -30 48 -52 62 -64 42z"/>
<path d="M15440 17370 c0 -5 15 -38 34 -72 19 -35 42 -89 51 -120 16 -56 39
-76 51 -44 15 38 -85 246 -118 246 -10 0 -18 -4 -18 -10z"/>
<path d="M13164 17357 c-3 -8 8 -41 25 -73 16 -33 37 -85 46 -116 17 -60 30
-77 47 -60 15 15 -17 125 -55 196 -34 62 -53 78 -63 53z"/>
<path d="M10884 17336 c-4 -9 5 -43 20 -75 14 -32 32 -85 39 -117 10 -43 19
-60 32 -63 16 -3 17 3 12 50 -6 64 -50 180 -77 204 -18 16 -20 17 -26 1z"/>
<path d="M9872 17293 c-24 -48 -49 -126 -56 -181 -5 -33 -3 -44 9 -48 22 -9
24 -5 36 62 6 32 22 85 36 116 24 55 26 88 4 88 -6 0 -19 -17 -29 -37z"/>
<path d="M12166 17288 c-24 -39 -48 -120 -54 -187 -4 -57 -3 -63 13 -60 15 3
21 20 31 74 6 39 21 94 33 123 20 51 21 72 1 72 -5 0 -16 -10 -24 -22z"/>
<path d="M14444 17253 c-22 -51 -46 -170 -42 -207 2 -19 9 -31 18 -31 10 0 17
20 25 70 6 39 19 94 29 123 18 53 16 82 -4 82 -6 0 -18 -17 -26 -37z"/>
<path d="M16732 17233 c-22 -57 -32 -110 -32 -176 0 -60 2 -68 18 -65 14 3 18
18 24 83 4 44 14 100 22 124 20 56 20 61 -3 61 -11 0 -23 -11 -29 -27z"/>
<path d="M17844 16937 c-2 -7 -3 -69 -2 -137 3 -110 5 -125 21 -128 15 -3 17
9 17 137 0 120 -2 141 -15 141 -9 0 -18 -6 -21 -13z"/>
<path d="M15552 16783 c3 -115 6 -138 18 -138 12 0 15 23 18 138 2 132 2 137
-18 137 -20 0 -20 -5 -18 -137z"/>
<path d="M13261 16896 c-8 -9 -11 -55 -9 -137 3 -109 5 -124 21 -127 15 -3 17
8 17 132 0 132 -6 160 -29 132z"/>
<path d="M10960 16740 c0 -129 1 -141 18 -138 15 3 17 18 17 138 0 120 -2 135
-17 138 -17 3 -18 -9 -18 -138z"/>
<path d="M9814 16847 c-2 -7 -3 -69 -2 -137 3 -110 5 -125 21 -128 15 -3 17 9
17 137 0 120 -2 141 -15 141 -9 0 -18 -6 -21 -13z"/>
<path d="M12116 16832 c-7 -12 -10 -262 -3 -269 4 -3 13 -3 22 1 13 5 15 25
13 137 -2 89 -7 134 -15 136 -6 2 -14 0 -17 -5z"/>
<path d="M14402 16673 c3 -115 6 -138 18 -138 12 0 15 23 18 138 2 132 2 137
-18 137 -20 0 -20 -5 -18 -137z"/>
<path d="M16699 16781 c-2 -6 -3 -70 -1 -141 3 -117 5 -131 20 -128 15 3 17
19 17 138 0 117 -2 135 -16 138 -10 2 -19 -2 -20 -7z"/>
<path d="M17844 16457 c-2 -7 -3 -69 -2 -137 3 -110 5 -125 21 -128 15 -3 17
9 17 137 0 120 -2 141 -15 141 -9 0 -18 -6 -21 -13z"/>
<path d="M15552 16303 c3 -115 6 -138 18 -138 12 0 15 23 18 138 2 132 2 137
-18 137 -20 0 -20 -5 -18 -137z"/>
<path d="M13261 16416 c-8 -9 -11 -55 -9 -137 3 -109 5 -124 21 -127 15 -3 17
8 17 132 0 132 -6 160 -29 132z"/>
<path d="M10960 16260 c0 -129 1 -141 18 -138 15 3 17 18 17 138 0 120 -2 135
-17 138 -17 3 -18 -9 -18 -138z"/>
<path d="M9814 16367 c-2 -7 -3 -69 -2 -137 3 -110 5 -125 21 -128 15 -3 17 9
17 137 0 120 -2 141 -15 141 -9 0 -18 -6 -21 -13z"/>
<path d="M12116 16352 c-7 -12 -10 -262 -3 -269 4 -3 13 -3 22 1 13 5 15 25
13 137 -2 89 -7 134 -15 136 -6 2 -14 0 -17 -5z"/>
<path d="M14402 16193 c3 -115 6 -138 18 -138 12 0 15 23 18 138 2 132 2 137
-18 137 -20 0 -20 -5 -18 -137z"/>
<path d="M16699 16301 c-2 -6 -3 -70 -1 -141 3 -117 5 -131 20 -128 15 3 17
19 17 138 0 117 -2 135 -16 138 -10 2 -19 -2 -20 -7z"/>
<path d="M18775 16199 c-172 -8 -305 -32 -456 -85 -552 -191 -945 -639 -1050
-1197 l-21 -113 -84 -29 c-342 -116 -632 -371 -783 -690 -23 -47 -41 -90 -41
-95 0 -21 -17 -8 -65 51 -88 107 -260 253 -398 338 -431 263 -930 350 -1406
245 -269 -60 -431 -141 -990 -498 -431 -275 -663 -390 -915 -451 -214 -53
-357 -155 -429 -307 -49 -104 -62 -165 -60 -298 1 -88 7 -138 27 -213 32 -123
109 -283 175 -362 95 -113 132 -158 145 -177 13 -19 16 -18 61 17 97 74 202
113 325 122 l85 6 37 77 c119 245 382 501 659 641 53 26 63 29 71 16 52 -94
248 -314 365 -412 l63 -52 69 24 c295 99 614 -53 782 -372 18 -33 33 -61 33
-62 5 -7 212 -47 319 -62 115 -16 136 -17 195 -4 37 8 79 13 93 11 17 -2 45
12 90 46 134 101 263 146 419 146 162 0 280 -43 383 -140 74 -69 117 -137 153
-245 22 -66 28 -103 32 -210 2 -72 -1 -162 -7 -201 -31 -199 -114 -391 -217
-502 -115 -125 -210 -171 -374 -181 l-106 -6 152 -627 c84 -345 155 -632 159
-638 3 -5 34 -10 68 -10 156 0 315 -13 311 -25 -3 -7 15 -43 39 -81 230 -359
421 -852 496 -1284 53 -303 61 -618 22 -869 -74 -483 -236 -1067 -518 -1871
-129 -367 -367 -990 -517 -1349 -60 -144 -67 -175 -39 -169 20 4 33 34 195
438 516 1287 853 2380 933 3022 45 365 -5 811 -141 1248 -87 279 -249 633
-391 854 -24 37 -43 69 -41 71 7 6 2061 -74 2143 -84 128 -15 306 -62 437
-116 62 -25 120 -49 129 -51 27 -9 46 145 31 246 -26 180 -89 299 -236 446
-108 107 -194 170 -456 334 -294 184 -478 337 -545 455 -25 44 -75 223 -129
466 -70 307 -113 419 -200 516 -93 103 -286 204 -587 308 -86 29 -181 66 -211
81 -156 79 -263 192 -317 337 -11 32 -21 60 -21 62 0 3 1293 5 2874 5 l2874 0
34 73 c74 153 92 228 92 397 0 246 -75 442 -238 617 -138 148 -336 255 -523
281 l-48 7 -8 50 c-71 416 -303 737 -665 919 -175 88 -347 126 -571 126 l-147
0 -23 58 c-107 265 -335 542 -581 705 -189 125 -376 204 -586 246 -143 29
-256 37 -429 30z m417 -68 c525 -114 936 -452 1143 -940 l32 -75 154 3 c169 2
265 -11 404 -56 437 -140 760 -528 811 -972 3 -33 7 -61 8 -61 0 -1 19 -3 41
-6 86 -11 204 -47 282 -85 427 -210 608 -715 408 -1136 l-34 -73 -2864 0
-2865 0 -6 23 c-3 12 -13 108 -21 212 -9 105 -23 228 -31 275 -40 222 -128
447 -243 620 -51 77 -51 83 18 226 91 186 245 363 420 482 110 76 202 122 333
167 l105 36 16 97 c33 198 104 390 204 550 78 124 126 184 229 287 231 229
512 373 854 435 145 27 458 22 602 -9z"/>
<path d="M15552 15823 c3 -115 6 -138 18 -138 12 0 15 23 18 138 2 132 2 137
-18 137 -20 0 -20 -5 -18 -137z"/>
<path d="M13261 15936 c-8 -9 -11 -55 -9 -137 3 -109 5 -124 21 -127 15 -3 17
8 17 132 0 132 -6 160 -29 132z"/>
<path d="M10960 15780 c0 -129 1 -141 18 -138 15 3 17 18 17 138 0 120 -2 135
-17 138 -17 3 -18 -9 -18 -138z"/>
<path d="M9814 15887 c-2 -7 -3 -69 -2 -137 3 -110 5 -125 21 -128 15 -3 17 9
17 137 0 120 -2 141 -15 141 -9 0 -18 -6 -21 -13z"/>
<path d="M12116 15868 c-2 -7 -7 -70 -10 -140 -4 -120 -4 -128 14 -128 15 0
20 10 25 53 10 81 2 220 -12 225 -7 2 -15 -2 -17 -10z"/>
<path d="M14398 15718 c-4 -134 1 -163 25 -140 8 9 13 56 15 142 3 124 3 130
-16 130 -19 0 -20 -9 -24 -132z"/>
<path d="M16700 15822 c0 -17 -11 -217 -13 -242 -1 -16 4 -26 15 -28 22 -4 31
43 32 173 1 87 -1 100 -16 103 -10 2 -18 -1 -18 -6z"/>
<path d="M15595 15480 c-16 -26 121 -220 155 -220 31 0 24 25 -20 72 -22 24
-53 69 -70 101 -29 54 -51 70 -65 47z"/>
<path d="M13310 15458 c0 -20 54 -109 95 -156 46 -53 73 -69 81 -48 3 9 -17
41 -51 81 -31 37 -63 82 -72 101 -16 33 -53 48 -53 22z"/>
<path d="M11025 15439 c-15 -23 137 -209 171 -209 32 0 21 26 -40 90 -36 38
-72 83 -81 100 -16 30 -38 39 -50 19z"/>
<path d="M9814 15407 c-2 -7 -3 -69 -2 -137 3 -110 5 -125 21 -128 15 -3 17 9
17 137 0 120 -2 141 -15 141 -9 0 -18 -6 -21 -13z"/>
<path d="M11983 15357 c-23 -29 -62 -69 -87 -88 -43 -32 -55 -58 -30 -66 31
-10 205 171 189 197 -12 20 -31 9 -72 -43z"/>
<path d="M14257 15334 c-27 -30 -66 -66 -88 -82 -38 -26 -52 -62 -26 -62 35 0
197 153 197 186 0 29 -37 11 -83 -42z"/>
<path d="M16552 15330 c-18 -22 -60 -59 -93 -82 -61 -44 -69 -55 -44 -64 33
-13 205 130 205 171 0 28 -35 15 -68 -25z"/>
<path d="M15944 15165 c-3 -8 -3 -18 0 -24 12 -19 130 -35 234 -32 25 1 32 5
32 21 0 18 -7 20 -78 20 -44 0 -101 7 -128 15 -60 18 -54 18 -60 0z"/>
<path d="M13666 15161 c-4 -6 -5 -15 -2 -20 11 -17 96 -31 185 -31 82 0 91 2
91 19 0 16 -11 19 -107 24 -60 3 -120 9 -134 12 -16 4 -30 2 -33 -4z"/>
<path d="M11392 15142 c4 -22 42 -29 166 -31 84 -1 104 2 109 14 3 9 4 17 2
19 -2 2 -66 6 -142 9 -125 5 -138 4 -135 -11z"/>
<path d="M8365 15100 c-42 -46 -7 -123 54 -123 64 0 96 78 51 123 -26 26 -81
26 -105 0z m80 -50 c0 -18 -6 -26 -23 -28 -13 -2 -25 3 -28 12 -10 26 4 48 28
44 17 -2 23 -10 23 -28z"/>
<path d="M8690 15043 c-28 -25 -33 -36 -33 -73 0 -36 6 -48 32 -72 43 -39 92
-38 132 1 60 60 27 156 -57 168 -36 4 -46 1 -74 -24z m98 -29 c41 -28 18 -104
-31 -104 -53 0 -77 75 -35 104 12 9 27 16 33 16 6 0 21 -7 33 -16z"/>
<path d="M9814 14927 c-2 -7 -3 -69 -2 -137 3 -110 5 -125 21 -128 15 -3 17 9
17 137 0 120 -2 141 -15 141 -9 0 -18 -6 -21 -13z"/>
<path d="M8370 14802 c-109 -54 -72 -212 50 -212 34 0 48 6 76 34 28 28 34 42
34 75 0 51 -24 89 -67 107 -42 18 -51 18 -93 -4z m110 -62 c25 -46 -9 -110
-57 -110 -80 0 -105 101 -34 136 29 15 77 1 91 -26z"/>
<path d="M8673 14624 c-40 -69 -73 -133 -73 -142 0 -26 144 -267 160 -267 16
0 160 241 160 267 0 27 -143 268 -160 268 -9 0 -45 -53 -87 -126z m150 -43
l57 -99 -57 -101 c-32 -55 -60 -100 -63 -100 -3 0 -31 45 -63 100 l-57 101 57
99 c32 55 60 99 63 99 3 0 31 -44 63 -99z"/>
<path d="M9817 14453 c-4 -3 -7 -46 -7 -95 0 -81 2 -88 20 -88 19 0 20 7 20
95 0 73 -3 95 -13 95 -8 0 -17 -3 -20 -7z"/>
<path d="M9840 12685 l0 -105 750 0 750 0 0 105 0 105 -750 0 -750 0 0 -105z"/>
<path d="M6905 12736 c-65 -28 -114 -121 -100 -189 17 -81 94 -146 174 -147
45 0 116 35 140 68 87 123 6 283 -141 282 -24 -1 -57 -7 -73 -14z m130 -40
c45 -19 75 -69 75 -125 0 -37 -6 -49 -39 -82 -34 -34 -44 -39 -86 -39 -26 0
-59 7 -75 16 -81 48 -80 174 3 224 38 24 75 25 122 6z"/>
<path d="M14295 12705 c-5 -1 -37 -8 -69 -15 l-59 -12 69 -45 c83 -54 275
-152 382 -194 121 -49 242 -89 242 -80 0 5 -18 36 -41 70 -54 82 -159 176
-243 218 -90 46 -229 74 -281 58z"/>
<path d="M19007 12624 c-4 -4 -7 -67 -7 -141 0 -127 1 -133 20 -133 20 0 20 5
18 137 -3 127 -10 158 -31 137z"/>
<path d="M12730 12364 c-69 -18 -141 -53 -203 -100 -40 -29 -48 -40 -43 -57
52 -176 57 -250 27 -370 -29 -110 -61 -169 -177 -323 -57 -76 -104 -138 -104
-139 0 -24 59 -194 86 -247 97 -193 261 -332 434 -369 61 -13 198 -7 246 11
l32 11 -34 95 c-68 190 -98 341 -114 565 l-10 144 64 61 c70 68 120 90 219 98
68 5 87 18 87 57 0 49 -24 62 -105 56 -84 -6 -153 -28 -218 -69 -26 -17 -49
-29 -51 -27 -2 2 -9 119 -16 260 -10 195 -10 267 -2 302 7 25 12 48 12 51 0
11 -75 5 -130 -10z"/>
<path d="M16145 12266 c-88 -41 -161 -143 -185 -262 -6 -28 -9 -98 -8 -155 2
-85 6 -104 19 -107 9 -1 20 8 27 23 17 36 69 65 121 65 124 0 241 -142 241
-294 0 -92 -26 -153 -95 -223 -52 -52 -72 -64 -129 -82 -38 -12 -75 -21 -83
-21 -8 0 -13 -7 -11 -17 3 -15 12 -17 48 -15 114 7 246 112 290 229 31 82 26
205 -12 284 -31 68 -94 133 -151 160 -57 25 -141 25 -190 -1 l-37 -20 0 61 c0
75 23 170 55 225 31 53 93 109 139 124 71 23 117 0 191 -94 26 -33 32 -36 42
-24 18 21 -45 110 -100 143 -55 32 -106 32 -172 1z"/>
<path d="M6920 12155 l0 -65 880 0 880 0 0 65 0 65 -880 0 -880 0 0 -65z
m1718 3 l-3 -23 -837 -3 -838 -2 0 25 0 25 841 0 840 0 -3 -22z"/>
<path d="M19007 12144 c-4 -4 -7 -67 -7 -141 0 -127 1 -133 20 -133 20 0 20 5
18 137 -3 127 -10 158 -31 137z"/>
<path d="M14175 12113 c-48 -7 -127 -34 -162 -55 -36 -22 -44 -59 -20 -92 16
-22 43 -19 129 13 74 27 147 27 225 -1 58 -20 63 -20 87 -4 27 17 33 45 16 76
-21 39 -185 77 -275 63z"/>
<path d="M6900 11908 c-76 -39 -112 -117 -90 -197 48 -180 301 -171 342 11 16
74 -26 157 -96 189 -55 25 -102 24 -156 -3z m135 -38 c22 -11 48 -33 58 -49
37 -63 9 -153 -57 -185 -43 -20 -69 -20 -113 1 -98 46 -98 189 0 234 53 23 61
23 112 -1z"/>
<path d="M9100 11715 l0 -105 310 0 310 0 0 105 0 105 -310 0 -310 0 0 -105z"/>
<path d="M14163 11795 c-105 -63 -116 -243 -21 -332 83 -78 213 -65 274 27 50
75 42 189 -18 265 -52 66 -160 84 -235 40z"/>
<path d="M19007 11664 c-4 -4 -7 -67 -7 -141 0 -127 1 -133 20 -133 20 0 20 5
18 137 -3 127 -10 158 -31 137z"/>
<path d="M13580 11180 c0 -387 2 -451 15 -456 22 -9 409 168 413 189 2 10 -3
17 -12 17 -9 0 -92 -34 -185 -75 -93 -41 -174 -75 -180 -75 -8 0 -11 121 -11
425 0 418 0 425 -20 425 -20 0 -20 -7 -20 -450z"/>
<path d="M13093 11549 c-48 -14 -98 -69 -113 -123 -26 -93 4 -188 78 -244 31
-23 45 -27 106 -27 58 0 77 4 104 23 106 76 98 266 -14 344 -44 31 -111 43
-161 27z"/>
<path d="M6920 11300 l0 -70 880 0 880 0 0 70 0 70 -880 0 -880 0 0 -70z
m1715 0 l0 -25 -837 -3 -838 -2 0 30 0 30 838 -2 837 -3 0 -25z"/>
<path d="M12128 11217 c-204 -346 -246 -604 -138 -835 44 -94 101 -170 256
-338 184 -201 237 -280 268 -401 22 -82 20 -174 -4 -269 -25 -97 -48 -145
-145 -299 -104 -165 -181 -323 -201 -413 -21 -95 -15 -241 15 -325 22 -62 70
-157 80 -157 3 0 22 28 41 62 51 91 165 241 255 336 146 155 353 305 553 399
70 34 747 283 768 283 2 0 -24 -42 -57 -92 -128 -197 -261 -498 -340 -773
-199 -693 -191 -1418 27 -2529 92 -469 258 -1114 410 -1593 39 -124 48 -143
66 -143 25 0 25 -2 -36 195 -270 857 -469 1779 -543 2515 -25 247 -25 749 0
950 66 537 229 1013 476 1387 l73 111 152 53 c83 28 152 53 154 55 2 1 18 58
35 126 l32 123 50 6 c108 14 202 53 320 132 70 48 275 244 275 264 0 32 -40 6
-139 -90 -184 -177 -329 -255 -491 -264 -98 -6 -153 11 -345 101 -383 182
-700 479 -891 834 -38 70 -40 73 -69 67 -16 -4 -48 -11 -70 -16 -62 -13 -184
-10 -253 6 -214 51 -406 234 -502 480 -17 44 -34 88 -38 97 -5 13 -15 3 -44
-45z"/>
<path d="M19007 11184 c-4 -4 -7 -67 -7 -141 0 -127 1 -133 20 -133 20 0 20 5
18 137 -3 127 -10 158 -31 137z"/>
<path d="M6902 11024 c-129 -66 -131 -247 -2 -311 83 -42 176 -19 226 57 51
77 33 179 -42 236 -46 35 -132 44 -182 18z m135 -41 c67 -31 94 -120 56 -184
-17 -28 -84 -69 -114 -69 -33 1 -99 40 -113 69 -35 67 -10 152 55 184 43 21
72 21 116 0z"/>
<path d="M14327 10854 c-4 -4 -7 -25 -7 -46 0 -124 -108 -251 -238 -279 -41
-8 -52 -15 -50 -27 8 -40 147 3 219 66 20 17 51 60 69 94 28 52 34 74 34 127
1 59 -9 83 -27 65z"/>
<path d="M9830 10675 l0 -105 750 0 750 0 0 105 0 105 -750 0 -750 0 0 -105z"/>
<path d="M19007 10704 c-4 -4 -7 -67 -7 -141 0 -127 1 -133 20 -133 20 0 20 5
18 137 -3 127 -10 158 -31 137z"/>
<path d="M20337 10690 c-51 -41 -52 -119 -1 -159 38 -30 87 -27 125 7 26 24
32 36 32 72 0 36 -6 48 -32 72 -38 34 -87 37 -124 8z m97 -39 c25 -27 17 -72
-15 -90 -24 -13 -29 -13 -53 2 -17 12 -26 26 -26 44 0 55 59 83 94 44z"/>
<path d="M19924 10602 c-16 -10 -34 -48 -34 -69 0 -55 89 -84 130 -43 44 44
11 120 -52 120 -18 0 -38 -4 -44 -8z m70 -47 c8 -22 -4 -45 -24 -45 -10 0 -23
7 -30 15 -15 18 2 45 30 45 10 0 20 -7 24 -15z"/>
<path d="M20563 10378 c-27 -36 -183 -317 -183 -330 0 -25 190 -348 205 -348
14 0 205 327 205 350 -1 25 -187 335 -202 338 -8 2 -19 -3 -25 -10z m106 -193
c72 -124 79 -142 68 -160 -8 -11 -44 -73 -82 -138 -37 -65 -71 -115 -76 -110
-4 4 -41 67 -83 139 l-76 132 81 141 c45 78 83 140 85 139 1 -2 38 -66 83
-143z"/>
<path d="M19998 10303 c-46 -29 -64 -104 -38 -153 14 -27 68 -60 98 -60 31 0
77 25 96 52 9 12 16 42 16 66 0 37 -6 50 -34 78 -27 27 -42 34 -72 34 -22 0
-51 -8 -66 -17z m106 -44 c52 -41 23 -122 -44 -122 -67 0 -96 81 -44 122 15
12 34 21 44 21 10 0 29 -9 44 -21z"/>
<path d="M6670 10205 l0 -105 485 0 485 0 0 105 0 105 -485 0 -485 0 0 -105z"/>
<path d="M6670 9700 l0 -100 855 0 855 0 0 100 0 100 -855 0 -855 0 0 -100z"/>
<path d="M5330 9595 l0 -105 348 2 347 3 3 103 3 102 -351 0 -350 0 0 -105z"/>
<path d="M21908 8626 l-3 -1064 -220 491 c-121 270 -225 492 -230 494 -44 13
-29 -27 210 -558 l245 -544 0 -835 0 -835 -80 175 c-43 96 -143 319 -222 494
-79 176 -147 321 -153 323 -43 13 -27 -30 210 -557 l245 -545 -1 -955 -1 -955
-28 60 c-15 33 -114 254 -220 490 -106 237 -196 433 -199 438 -4 4 -14 1 -23
-5 -14 -12 11 -74 228 -556 l244 -544 0 -640 0 -639 23 3 22 3 5 650 5 650
233 515 c128 283 235 525 238 538 10 37 -29 28 -48 -10 -8 -18 -107 -238 -219
-488 l-204 -455 -3 952 -2 953 201 447 c301 671 285 633 269 644 -8 5 -17 9
-20 9 -3 0 -104 -221 -225 -491 l-220 -490 -3 830 -2 830 240 535 c132 295
240 540 240 545 0 8 -30 25 -35 19 -1 -2 -101 -223 -221 -491 l-219 -489 -3
1061 -2 1061 -25 0 -25 0 -2 -1064z"/>
<path d="M16263 9538 c-230 -364 -384 -561 -612 -788 -231 -231 -429 -384
-644 -500 l-77 -42 -59 51 c-232 202 -488 573 -609 887 -29 75 -53 102 -65 71
-3 -8 14 -59 37 -114 136 -320 340 -622 561 -831 133 -127 119 -122 219 -68
412 225 831 624 1143 1091 148 221 180 285 143 285 -5 0 -22 -19 -37 -42z"/>
<path d="M6670 9235 l0 -105 350 0 350 0 0 105 0 105 -350 0 -350 0 0 -105z"/>
<path d="M1360 9130 l0 -100 750 0 750 0 0 100 0 100 -750 0 -750 0 0 -100z"/>
<path d="M24535 9213 c-11 -30 -562 -1523 -650 -1762 l-82 -223 -6 48 c-3 27
-21 271 -39 543 -33 496 -37 526 -69 494 -5 -5 7 -238 32 -598 37 -539 39
-594 26 -635 -8 -25 -105 -290 -217 -590 -111 -300 -234 -633 -273 -740 -40
-107 -73 -186 -74 -175 -3 24 -73 1043 -73 1063 0 8 -9 12 -22 10 -21 -3 -23
-8 -20 -48 1 -25 18 -275 37 -556 19 -282 35 -534 35 -562 0 -40 -40 -157
-204 -603 -157 -424 -208 -576 -221 -648 -9 -51 -14 -95 -12 -98 3 -2 21 42
42 99 21 57 111 301 200 543 89 242 180 488 202 546 l39 107 167 173 c93 96
266 273 385 394 301 306 289 292 271 310 -14 14 -28 2 -139 -112 -209 -216
-640 -652 -640 -648 0 2 113 308 251 682 137 373 267 723 287 778 l37 100 266
270 c394 401 564 576 567 584 1 5 -4 13 -11 20 -12 9 -86 -62 -392 -374 -208
-212 -379 -384 -381 -382 -3 3 225 626 530 1452 197 531 199 537 185 546 -20
13 -26 11 -34 -8z"/>
<path d="M6650 8745 l0 -105 490 0 490 0 0 105 0 105 -490 0 -490 0 0 -105z"/>
<path d="M5050 8625 l0 -105 490 0 490 0 0 105 0 105 -490 0 -490 0 0 -105z"/>
<path d="M8480 8240 l0 -100 495 0 495 0 0 100 0 100 -495 0 -495 0 0 -100z"/>
<path d="M1370 8155 l0 -105 748 2 747 3 3 103 3 102 -751 0 -750 0 0 -105z"/>
<path d="M13111 7313 c-181 -588 -362 -1296 -426 -1671 -40 -230 -51 -370 -36
-469 33 -235 187 -600 416 -993 l73 -125 11 -125 c11 -118 20 -145 46 -136 6
1 9 16 8 32 -21 246 -21 243 -77 339 -213 358 -374 720 -421 943 -32 154 -12
376 66 744 73 346 200 834 339 1301 38 131 68 243 65 248 -18 27 -36 2 -64
-88z"/>
<path d="M2825 7353 c9 -21 68 -166 132 -323 415 -1026 1590 -3926 1709 -4219
l144 -354 0 -114 0 -113 -1837 -2 c-1741 -3 -1838 -4 -1841 -21 -3 -16 90 -17
1837 -17 l1841 0 0 -25 0 -25 4484 0 4485 0 3 23 3 22 4528 3 c4306 2 4528 3
4525 20 -3 16 -181 17 -3535 20 l-3532 2 6 53 c2 28 31 405 63 835 32 431 62
787 66 791 5 4 612 54 1349 111 797 62 1345 108 1352 114 9 8 -3 109 -52 431
-36 231 -141 924 -235 1540 -94 615 -175 1124 -180 1129 -7 7 -14 6 -22 -2
-13 -13 -14 -7 312 -2142 76 -503 137 -916 135 -919 -3 -2 -51 -8 -107 -12
-1609 -124 -2585 -203 -2591 -208 -4 -4 -11 -34 -15 -66 l-7 -59 -50 2 c-28 2
-408 25 -845 52 -994 62 -914 59 -918 38 -2 -13 6 -18 40 -22 24 -3 419 -28
878 -56 459 -28 849 -53 865 -55 l31 -5 -58 -763 c-31 -419 -57 -768 -57 -774
-1 -10 -83 -13 -375 -13 -206 0 -377 4 -380 9 -3 4 -110 11 -238 14 -128 3
-269 11 -313 17 -219 30 -427 91 -549 161 l-69 39 -458 0 c-301 0 -476 4 -511
11 -71 15 -142 52 -167 87 -73 103 -32 276 81 333 34 17 182 41 787 125 409
57 749 108 755 114 35 35 -30 28 -770 -74 -722 -101 -760 -107 -804 -134 -87
-53 -140 -173 -125 -282 10 -70 53 -133 117 -169 l53 -31 -198 0 c-184 0 -198
1 -193 18 3 9 18 71 34 137 50 205 116 344 225 476 31 37 199 196 374 354 175
158 327 296 338 306 17 17 18 20 4 34 -14 14 -44 -10 -305 -246 -366 -331
-404 -368 -473 -459 -106 -142 -160 -269 -216 -507 l-27 -113 -134 0 c-74 0
-134 3 -134 6 0 20 136 461 162 528 43 107 113 210 322 471 97 121 174 225
173 230 -11 32 -52 -9 -208 -205 -94 -118 -191 -243 -215 -276 -75 -104 -128
-233 -206 -499 l-74 -250 -523 0 -523 0 -23 55 c-12 30 -118 291 -235 580
-117 289 -227 561 -245 605 -55 135 -1466 3617 -1482 3658 l-15 37 -3079 0
-3079 0 15 -37z m6842 -2506 c547 -1314 992 -2395 989 -2403 -5 -12 -403 -14
-2913 -12 -2577 3 -2908 5 -2908 18 0 13 328 15 2884 18 l2883 2 -6 23 c-3 12
-446 1079 -985 2372 -538 1292 -976 2355 -974 2363 3 7 12 12 20 10 9 -2 391
-907 1010 -2391z m4285 -2504 c87 -35 197 -67 298 -86 47 -9 94 -18 105 -20
11 -3 -112 -5 -272 -6 l-293 -1 0 100 0 100 49 -30 c27 -17 78 -42 113 -57z"/>
<path d="M20756 6618 c-3 -18 -19 -253 -37 -523 -17 -269 -34 -498 -38 -509
-5 -13 -14 0 -34 55 l-27 74 6 -80 c3 -44 5 -97 5 -117 -1 -27 5 -43 22 -60
17 -16 95 -215 268 -685 134 -363 245 -660 246 -659 1 1 -5 47 -13 102 -13 82
-51 194 -225 666 l-209 566 40 579 c22 318 40 588 40 601 0 15 -6 22 -20 22
-14 0 -20 -9 -24 -32z"/>
<path d="M22958 4078 c-257 -263 -337 -351 -342 -376 -4 -17 -5 -32 -3 -32 4
0 391 389 542 546 33 34 85 87 115 118 49 50 53 58 39 71 -14 14 -49 -19 -351
-327z"/>
<path d="M20731 4233 c0 -10 3 -25 7 -35 8 -19 514 -540 519 -534 12 12 -18
70 -60 117 -52 58 -459 469 -464 469 -2 0 -3 -8 -2 -17z"/>
<path d="M2903 4018 c-14 -18 -123 -208 -123 -215 0 -3 28 -54 62 -114 37 -65
68 -109 78 -109 9 0 41 45 78 108 34 60 62 111 62 114 0 13 -127 222 -136 225
-6 2 -16 -2 -21 -9z m65 -136 l44 -77 -33 -62 c-42 -78 -56 -96 -66 -90 -4 3
-26 39 -47 79 l-39 73 44 77 c24 43 46 77 49 77 3 1 25 -34 48 -77z"/>
<path d="M16627 3932 c-10 -15 -308 -1646 -305 -1667 2 -11 10 -20 18 -20 18
0 20 11 135 640 48 259 109 591 136 738 28 148 49 278 47 290 -3 22 -23 34
-31 19z"/>
<path d="M2294 3771 c-65 -28 -84 -113 -35 -162 91 -91 230 36 144 131 -30 32
-75 45 -109 31z m71 -56 c29 -28 31 -42 9 -73 -29 -42 -104 -18 -104 34 0 21
41 64 62 64 5 0 20 -11 33 -25z"/>
<path d="M2397 3291 c-53 -92 -97 -172 -97 -177 0 -5 43 -84 97 -177 68 -119
101 -167 112 -165 9 2 60 79 114 171 l99 169 -53 91 c-119 208 -150 257 -162
257 -7 0 -56 -76 -110 -169z m195 -38 c40 -70 74 -131 76 -135 4 -9 -151 -278
-160 -278 -8 0 -158 257 -158 272 0 19 152 278 160 273 5 -3 42 -63 82 -132z"/>
<path d="M2845 3325 c-14 -13 -25 -36 -25 -50 0 -33 41 -75 73 -75 40 0 77 36
77 75 0 24 -7 39 -26 54 -35 28 -69 26 -99 -4z m76 -31 c9 -11 10 -20 3 -32
-15 -23 -29 -25 -48 -7 -12 12 -13 21 -6 36 13 23 33 25 51 3z"/>
<path d="M3231 3186 c-33 -18 -50 -53 -51 -103 0 -33 6 -48 31 -72 26 -26 38
-31 78 -31 83 0 132 64 110 145 -18 64 -105 96 -168 61z m109 -46 c24 -24 26
-77 3 -102 -38 -42 -123 -9 -123 49 0 61 78 95 120 53z"/>
<path d="M1863 2950 c-72 -30 -45 -140 34 -140 36 0 73 38 73 75 0 49 -59 85
-107 65z m62 -58 c8 -20 -19 -47 -39 -39 -26 10 -32 38 -12 53 21 15 42 9 51
-14z"/>
</g>
</svg>
